M48
; DRILL file {KiCad (5.1.8)-1} date 02/13/21 18:20:21
; FORMAT={-:-/ absolute / inch / decimal}
; #@! TF.CreationDate,2021-02-13T18:20:21-08:00
; #@! TF.GenerationSoftware,Kicad,Pcbnew,(5.1.8)-1
; #@! TF.FileFunction,Plated,1,2,PTH
FMAT,2
INCH
T1C0.0157
T2C0.0866
%
G90
G05
T1
X5.7151Y-2.3954
X5.7341Y-2.3495
X5.7341Y-2.4414
X5.78Y-2.3305
X5.78Y-2.4604
X5.826Y-2.3495
X5.826Y-2.4414
X5.845Y-2.3954
X6.3241Y-4.1745
X6.3431Y-4.1285
X6.3431Y-4.2204
X6.389Y-4.1095
X6.389Y-4.2394
X6.435Y-4.1285
X6.435Y-4.2204
X6.454Y-4.1745
X4.2092Y-3.4547
X4.2282Y-3.4088
X4.2282Y-3.5007
X4.2741Y-3.3898
X4.2741Y-3.5197
X4.32Y-3.4088
X4.32Y-3.5007
X4.3391Y-3.4547
X4.13Y-1.0757
X4.149Y-1.0298
X4.149Y-1.1216
X4.195Y-1.0107
X4.195Y-1.1407
X4.2409Y-1.0298
X4.2409Y-1.1216
X4.2599Y-1.0757
X3.7773Y-4.4919
X3.7963Y-4.4459
X3.7963Y-4.5378
X3.8423Y-4.4269
X3.8423Y-4.5568
X3.8882Y-4.4459
X3.8882Y-4.5378
X3.9072Y-4.4919
X7.2394Y-2.8162
X7.2584Y-2.7703
X7.2584Y-2.8621
X7.3044Y-2.7512
X7.3044Y-2.8812
X7.3503Y-2.7703
X7.3503Y-2.8621
X7.3693Y-2.8162
X6.7005Y-1.2032
X6.7196Y-1.1573
X6.7196Y-1.2492
X6.7655Y-1.1383
X6.7655Y-1.2682
X6.8114Y-1.1573
X6.8114Y-1.2492
X6.8305Y-1.2032
X3.3455Y-2.5431
X3.3645Y-2.4971
X3.3645Y-2.589
X3.4104Y-2.4781
X3.4104Y-2.608
X3.4564Y-2.4971
X3.4564Y-2.589
X3.4754Y-2.5431
X2.4966Y-2.5431
X2.5156Y-2.4971
X2.5156Y-2.589
X2.5615Y-2.4781
X2.5615Y-2.608
X2.6074Y-2.4971
X2.6074Y-2.589
X2.6265Y-2.5431
X7.8374Y-4.4697
X7.8564Y-4.4238
X7.8564Y-4.5157
X7.9023Y-4.4048
X7.9023Y-4.5347
X7.9482Y-4.4238
X7.9482Y-4.5157
X7.9673Y-4.4697
T2
X6.389Y-4.1745
X4.2741Y-3.4547
X4.195Y-1.0757
X3.8423Y-4.4919
X7.3044Y-2.8162
X6.7655Y-1.2032
X3.4104Y-2.5431
X2.5615Y-2.5431
X7.9023Y-4.4697
X5.78Y-2.3954
T0
M30
