%TF.GenerationSoftware,KiCad,Pcbnew,(5.1.8)-1*%
%TF.CreationDate,2021-02-13T18:18:20-08:00*%
%TF.ProjectId,Dualies_plate,4475616c-6965-4735-9f70-6c6174652e6b,rev?*%
%TF.SameCoordinates,Original*%
%TF.FileFunction,Profile,NP*%
%FSLAX46Y46*%
G04 Gerber Fmt 4.6, Leading zero omitted, Abs format (unit mm)*
G04 Created by KiCad (PCBNEW (5.1.8)-1) date 2021-02-13 18:18:20*
%MOMM*%
%LPD*%
G01*
G04 APERTURE LIST*
%TA.AperFunction,Profile*%
%ADD10C,0.050000*%
%TD*%
%TA.AperFunction,Profile*%
%ADD11C,0.120000*%
%TD*%
G04 APERTURE END LIST*
D10*
X84063840Y-82900520D02*
X66563240Y-82900520D01*
X84063840Y-97602040D02*
X84063840Y-82900520D01*
X66563240Y-97602040D02*
X84063840Y-97602040D01*
X66563240Y-97596960D02*
X66563240Y-97602040D01*
X66563240Y-82900520D02*
X66563240Y-97596960D01*
X90562500Y-23062500D02*
X90270000Y-23060000D01*
X60870000Y-79540000D02*
X60843751Y-97031249D01*
X61380000Y-79030000D02*
X89710000Y-79020000D01*
X60870000Y-79540000D02*
G75*
G02*
X61380000Y-79030000I510000J0D01*
G01*
X89730000Y-23600000D02*
X89710000Y-79020000D01*
X89730000Y-23600000D02*
G75*
G02*
X90270000Y-23060000I540000J0D01*
G01*
X207187500Y-32812500D02*
X207187500Y-109875000D01*
X90562500Y-23062500D02*
X102187500Y-21468750D01*
X85406250Y-140906250D02*
X102289528Y-130903075D01*
X102289528Y-130903076D02*
G75*
G02*
X157593749Y-130687501I28022972J-95034424D01*
G01*
X69656250Y-113812500D02*
X62604095Y-100826158D01*
X62604095Y-100826158D02*
G75*
G02*
X60843751Y-97031249I25239655J14013658D01*
G01*
X85406250Y-140906250D02*
X69656250Y-113812500D01*
X198750000Y-130687500D02*
X157593749Y-130687501D01*
X207191441Y-111750994D02*
G75*
G02*
X198749999Y-130687499I-58691441J14813494D01*
G01*
X207187500Y-111562500D02*
X207187500Y-111750000D01*
X207187500Y-110812500D02*
X207187500Y-111562500D01*
X207187500Y-110531250D02*
X207187500Y-110812500D01*
X207187500Y-110156250D02*
X207187500Y-110531250D01*
X207187500Y-109875000D02*
X207187500Y-110156250D01*
X153946843Y-21467027D02*
X102187500Y-21468750D01*
X153946843Y-21467027D02*
G75*
G02*
X207187499Y-32812501I-23634343J-241501723D01*
G01*
D11*
%TO.C,K24*%
X96280928Y-124530928D02*
X89280928Y-112406572D01*
X89280928Y-112406572D02*
X77156572Y-119406572D01*
X96280928Y-124530928D02*
X84156572Y-131530928D01*
X84156572Y-131530928D02*
X77156572Y-119406572D01*
%TO.C,K26*%
X136562500Y-107281250D02*
X122562500Y-107281250D01*
X122562500Y-107281250D02*
X122562500Y-121281250D01*
X136562500Y-107281250D02*
X136562500Y-121281250D01*
X136562500Y-121281250D02*
X122562500Y-121281250D01*
%TO.C,K11*%
X202093750Y-54968750D02*
X188093750Y-54968750D01*
X188093750Y-54968750D02*
X188093750Y-68968750D01*
X202093750Y-54968750D02*
X202093750Y-68968750D01*
X202093750Y-68968750D02*
X188093750Y-68968750D01*
%TO.C,K28*%
X174812500Y-112343750D02*
X160812500Y-112343750D01*
X160812500Y-112343750D02*
X160812500Y-126343750D01*
X174812500Y-112343750D02*
X174812500Y-126343750D01*
X174812500Y-126343750D02*
X160812500Y-126343750D01*
%TO.C,K8*%
X144718750Y-44281250D02*
X130718750Y-44281250D01*
X130718750Y-44281250D02*
X130718750Y-58281250D01*
X144718750Y-44281250D02*
X144718750Y-58281250D01*
X144718750Y-58281250D02*
X130718750Y-58281250D01*
%TO.C,K1*%
X125593750Y-29843750D02*
X111593750Y-29843750D01*
X111593750Y-29843750D02*
X111593750Y-43843750D01*
X125593750Y-29843750D02*
X125593750Y-43843750D01*
X125593750Y-43843750D02*
X111593750Y-43843750D01*
%TO.C,K2*%
X144718750Y-25156250D02*
X130718750Y-25156250D01*
X130718750Y-25156250D02*
X130718750Y-39156250D01*
X144718750Y-25156250D02*
X144718750Y-39156250D01*
X144718750Y-39156250D02*
X130718750Y-39156250D01*
%TO.C,K3*%
X163843750Y-28906250D02*
X149843750Y-28906250D01*
X149843750Y-28906250D02*
X149843750Y-42906250D01*
X163843750Y-28906250D02*
X163843750Y-42906250D01*
X163843750Y-42906250D02*
X149843750Y-42906250D01*
%TO.C,K4*%
X182968750Y-35843750D02*
X168968750Y-35843750D01*
X168968750Y-35843750D02*
X168968750Y-49843750D01*
X182968750Y-35843750D02*
X182968750Y-49843750D01*
X182968750Y-49843750D02*
X168968750Y-49843750D01*
%TO.C,K5*%
X202093750Y-35843750D02*
X188093750Y-35843750D01*
X188093750Y-35843750D02*
X188093750Y-49843750D01*
X202093750Y-35843750D02*
X202093750Y-49843750D01*
X202093750Y-49843750D02*
X188093750Y-49843750D01*
%TO.C,K6*%
X106468750Y-52156250D02*
X92468750Y-52156250D01*
X92468750Y-52156250D02*
X92468750Y-66156250D01*
X106468750Y-52156250D02*
X106468750Y-66156250D01*
X106468750Y-66156250D02*
X92468750Y-66156250D01*
%TO.C,K7*%
X125593750Y-48968750D02*
X111593750Y-48968750D01*
X111593750Y-48968750D02*
X111593750Y-62968750D01*
X125593750Y-48968750D02*
X125593750Y-62968750D01*
X125593750Y-62968750D02*
X111593750Y-62968750D01*
%TO.C,K9*%
X163843750Y-48031250D02*
X149843750Y-48031250D01*
X149843750Y-48031250D02*
X149843750Y-62031250D01*
X163843750Y-48031250D02*
X163843750Y-62031250D01*
X163843750Y-62031250D02*
X149843750Y-62031250D01*
%TO.C,K10*%
X182968750Y-54968750D02*
X168968750Y-54968750D01*
X168968750Y-54968750D02*
X168968750Y-68968750D01*
X182968750Y-54968750D02*
X182968750Y-68968750D01*
X182968750Y-68968750D02*
X168968750Y-68968750D01*
%TO.C,K12*%
X106468750Y-71281250D02*
X92468750Y-71281250D01*
X92468750Y-71281250D02*
X92468750Y-85281250D01*
X106468750Y-71281250D02*
X106468750Y-85281250D01*
X106468750Y-85281250D02*
X92468750Y-85281250D01*
%TO.C,K13*%
X125593750Y-68093750D02*
X111593750Y-68093750D01*
X111593750Y-68093750D02*
X111593750Y-82093750D01*
X125593750Y-68093750D02*
X125593750Y-82093750D01*
X125593750Y-82093750D02*
X111593750Y-82093750D01*
%TO.C,K14*%
X144718750Y-63406250D02*
X130718750Y-63406250D01*
X130718750Y-63406250D02*
X130718750Y-77406250D01*
X144718750Y-63406250D02*
X144718750Y-77406250D01*
X144718750Y-77406250D02*
X130718750Y-77406250D01*
%TO.C,K15*%
X163843750Y-67156250D02*
X149843750Y-67156250D01*
X149843750Y-67156250D02*
X149843750Y-81156250D01*
X163843750Y-67156250D02*
X163843750Y-81156250D01*
X163843750Y-81156250D02*
X149843750Y-81156250D01*
%TO.C,K16*%
X182968750Y-74093750D02*
X168968750Y-74093750D01*
X168968750Y-74093750D02*
X168968750Y-88093750D01*
X182968750Y-74093750D02*
X182968750Y-88093750D01*
X182968750Y-88093750D02*
X168968750Y-88093750D01*
%TO.C,K17*%
X202093750Y-74093750D02*
X188093750Y-74093750D01*
X188093750Y-74093750D02*
X188093750Y-88093750D01*
X202093750Y-74093750D02*
X202093750Y-88093750D01*
X202093750Y-88093750D02*
X188093750Y-88093750D01*
%TO.C,K18*%
X106468750Y-90406250D02*
X92468750Y-90406250D01*
X92468750Y-90406250D02*
X92468750Y-104406250D01*
X106468750Y-90406250D02*
X106468750Y-104406250D01*
X106468750Y-104406250D02*
X92468750Y-104406250D01*
%TO.C,K19*%
X125593750Y-87218750D02*
X111593750Y-87218750D01*
X111593750Y-87218750D02*
X111593750Y-101218750D01*
X125593750Y-87218750D02*
X125593750Y-101218750D01*
X125593750Y-101218750D02*
X111593750Y-101218750D01*
%TO.C,K20*%
X144718750Y-82531250D02*
X130718750Y-82531250D01*
X130718750Y-82531250D02*
X130718750Y-96531250D01*
X144718750Y-82531250D02*
X144718750Y-96531250D01*
X144718750Y-96531250D02*
X130718750Y-96531250D01*
%TO.C,K21*%
X163843750Y-86281250D02*
X149843750Y-86281250D01*
X149843750Y-86281250D02*
X149843750Y-100281250D01*
X163843750Y-86281250D02*
X163843750Y-100281250D01*
X163843750Y-100281250D02*
X149843750Y-100281250D01*
%TO.C,K22*%
X182968750Y-93218750D02*
X168968750Y-93218750D01*
X168968750Y-93218750D02*
X168968750Y-107218750D01*
X182968750Y-93218750D02*
X182968750Y-107218750D01*
X182968750Y-107218750D02*
X168968750Y-107218750D01*
%TO.C,K23*%
X202093750Y-93218750D02*
X188093750Y-93218750D01*
X188093750Y-93218750D02*
X188093750Y-107218750D01*
X202093750Y-93218750D02*
X202093750Y-107218750D01*
X202093750Y-107218750D02*
X188093750Y-107218750D01*
%TO.C,K25*%
X117437500Y-109531250D02*
X103437500Y-109531250D01*
X103437500Y-109531250D02*
X103437500Y-123531250D01*
X117437500Y-109531250D02*
X117437500Y-123531250D01*
X117437500Y-123531250D02*
X103437500Y-123531250D01*
%TO.C,K27*%
X155687500Y-106343750D02*
X141687500Y-106343750D01*
X141687500Y-106343750D02*
X141687500Y-120343750D01*
X155687500Y-106343750D02*
X155687500Y-120343750D01*
X155687500Y-120343750D02*
X141687500Y-120343750D01*
%TO.C,K29*%
X193937500Y-112343750D02*
X179937500Y-112343750D01*
X179937500Y-112343750D02*
X179937500Y-126343750D01*
X193937500Y-112343750D02*
X193937500Y-126343750D01*
X193937500Y-126343750D02*
X179937500Y-126343750D01*
%TO.C,K0*%
X106468750Y-33031250D02*
X92468750Y-33031250D01*
X92468750Y-33031250D02*
X92468750Y-47031250D01*
X106468750Y-33031250D02*
X106468750Y-47031250D01*
X106468750Y-47031250D02*
X92468750Y-47031250D01*
%TD*%
M02*
