M48
; DRILL file {KiCad (5.1.8)-1} date 02/13/21 18:14:18
; FORMAT={-:-/ absolute / inch / decimal}
; #@! TF.CreationDate,2021-02-13T18:14:18-08:00
; #@! TF.GenerationSoftware,Kicad,Pcbnew,(5.1.8)-1
; #@! TF.FileFunction,Plated,1,2,PTH
FMAT,2
INCH
T1C0.0157
T2C0.0276
T3C0.0320
T4C0.0394
T5C0.0433
T6C0.0472
T7C0.0787
T8C0.0866
%
G90
G05
T1
X2.6493Y-2.8597
X2.7674Y-2.8597
X2.7977Y-2.0079
X2.7977Y-2.1001
X2.8014Y-1.9341
X2.8094Y-1.835
X2.8126Y-1.635
X2.8127Y-1.735
X2.813Y-1.535
X2.8642Y-1.4801
X2.9048Y-1.2808
X2.9048Y-2.1481
X2.9249Y-2.8584
X2.9682Y-2.8561
X2.9899Y-1.4803
X2.9899Y-2.2443
X3.045Y-1.6831
X3.045Y-2.2035
X3.0881Y-2.1789
X3.0907Y-1.582
X3.1816Y-1.1811
X3.189Y-1.2365
X3.5101Y-4.5399
X3.643Y-1.4505
X3.6909Y-4.8536
X3.7205Y-4.7798
X3.7315Y-2.8679
X3.7352Y-1.362
X3.7389Y-2.1149
X3.7446Y-3.6228
X3.8533Y-3.75
X4.0745Y-4.569
X4.0913Y-3.6228
X4.1134Y-1.3639
X4.1141Y-2.1173
X4.117Y-2.0242
X4.1251Y-2.8591
X4.1523Y-1.2328
X4.1634Y-2.8162
X4.1634Y-3.595
X4.169Y-4.3757
X4.2926Y-1.9894
X4.2926Y-2.7534
X4.2963Y-1.1294
X4.4476Y-1.373
X4.466Y-3.3883
X4.4697Y-2.7313
X4.4734Y-2.8789
X4.4808Y-2.126
X4.4808Y-3.6061
X4.4862Y-1.2384
X4.4862Y-1.9914
X4.5012Y-3.4973
X4.5325Y-4.3756
X4.6026Y-4.3442
X4.7244Y-4.2889
X4.8499Y-2.7424
X4.8508Y-1.2411
X4.8536Y-3.4843
X4.8831Y-1.8861
X4.8831Y-1.9747
X4.8979Y-4.4107
X4.9163Y-2.687
X4.92Y-3.4473
X4.9237Y-4.2889
X5.0049Y-3.3883
X5.0455Y-0.9596
X5.0455Y-1.8086
X5.0455Y-2.6206
X5.1599Y-1.1405
X5.1764Y-1.8068
X5.2081Y-1.9232
X5.2227Y-2.6796
X5.2338Y-3.4215
X5.2357Y-2.5598
X5.2411Y-1.0556
X5.2411Y-3.3071
X5.2762Y-4.2907
X5.326Y-4.2594
X5.4774Y-4.2077
X5.5936Y-1.0611
X5.6065Y-2.5597
X5.6102Y-3.3071
X5.6287Y-1.7347
X5.6324Y-1.7938
X5.6342Y-1.0316
X5.6508Y-4.3738
X5.6693Y-2.5283
X5.6693Y-3.2776
X5.673Y-4.2538
X5.7985Y-0.9855
X5.7985Y-1.72
X5.7985Y-3.2333
X5.9018Y-2.4951
X5.9203Y-1.2881
X5.924Y-2.0374
X5.9255Y-3.527
X5.9847Y-1.2015
X5.9941Y-2.7018
X5.9941Y-3.4547
X6.0015Y-1.8861
X6.0074Y-2.7955
X6.031Y-4.252
X6.0901Y-4.2224
X6.2303Y-4.1781
X6.3466Y-1.2088
X6.3669Y-3.4584
X6.3706Y-1.9451
X6.374Y-1.8637
X6.3766Y-2.7041
X6.4222Y-1.1774
X6.4222Y-2.6759
X6.4222Y-3.4289
X6.4296Y-4.4882
X6.5514Y-2.6169
X6.5514Y-3.3809
X6.5533Y-1.8252
X6.5551Y-1.1036
X6.6105Y-2.687
X6.634Y-1.9659
X6.6622Y-1.565
X6.6732Y-3.7537
X6.6769Y-3.0044
X6.6954Y-2.1887
X6.7507Y-2.9749
X6.751Y-1.406
X6.7544Y-3.7279
X6.7635Y-2.1391
X6.7932Y-4.4863
X6.8282Y-4.4328
X6.8526Y-2.3551
X6.9833Y-4.3812
X7.103Y-2.1608
X7.1142Y-3.7335
X7.1143Y-2.9786
X7.1252Y-2.2276
X7.1622Y-1.4747
X7.1641Y-4.6026
X7.1769Y-4.4865
X7.1789Y-3.6799
X7.1826Y-2.9491
X7.3044Y-1.373
X7.3044Y-2.1038
X7.3044Y-3.6282
X7.393Y-2.9122
X7.4151Y-1.5945
X7.4409Y-3.8275
X7.4557Y-4.4328
X7.4794Y-3.1019
X7.4815Y-2.3474
X7.4963Y-1.4746
X7.5018Y-2.9767
X7.5074Y-2.2256
X7.5074Y-3.7315
X7.5295Y-4.4882
X7.7694Y-3.6799
X7.7891Y-3.1287
X7.8802Y-2.9786
X7.8807Y-1.4732
X7.8819Y-3.7335
X7.8875Y-2.2183
X7.9134Y-3.6799
X7.9835Y-2.2404
X4.2092Y-3.4547
X4.2282Y-3.4088
X4.2282Y-3.5007
X4.2741Y-3.3898
X4.2741Y-3.5197
X4.32Y-3.4088
X4.32Y-3.5007
X4.3391Y-3.4547
X3.3455Y-2.5431
X3.3645Y-2.4971
X3.3645Y-2.589
X3.4104Y-2.4781
X3.4104Y-2.608
X3.4564Y-2.4971
X3.4564Y-2.589
X3.4754Y-2.5431
X2.4966Y-2.5431
X2.5156Y-2.4971
X2.5156Y-2.589
X2.5615Y-2.4781
X2.5615Y-2.608
X2.6074Y-2.4971
X2.6074Y-2.589
X2.6265Y-2.5431
X6.3241Y-4.1745
X6.3431Y-4.1285
X6.3431Y-4.2204
X6.389Y-4.1095
X6.389Y-4.2394
X6.435Y-4.1285
X6.435Y-4.2204
X6.454Y-4.1745
X7.2394Y-2.8162
X7.2584Y-2.7703
X7.2584Y-2.8621
X7.3044Y-2.7512
X7.3044Y-2.8812
X7.3503Y-2.7703
X7.3503Y-2.8621
X7.3693Y-2.8162
X6.7005Y-1.2032
X6.7196Y-1.1573
X6.7196Y-1.2492
X6.7655Y-1.1383
X6.7655Y-1.2682
X6.8114Y-1.1573
X6.8114Y-1.2492
X6.8305Y-1.2032
X7.8374Y-4.4697
X7.8564Y-4.4238
X7.8564Y-4.5157
X7.9023Y-4.4048
X7.9023Y-4.5347
X7.9482Y-4.4238
X7.9482Y-4.5157
X7.9673Y-4.4697
X4.13Y-1.0757
X4.149Y-1.0298
X4.149Y-1.1216
X4.195Y-1.0107
X4.195Y-1.1407
X4.2409Y-1.0298
X4.2409Y-1.1216
X4.2599Y-1.0757
X5.7151Y-2.3954
X5.7341Y-2.3495
X5.7341Y-2.4414
X5.78Y-2.3305
X5.78Y-2.4604
X5.826Y-2.3495
X5.826Y-2.4414
X5.845Y-2.3954
X3.7773Y-4.4919
X3.7963Y-4.4459
X3.7963Y-4.5378
X3.8423Y-4.4269
X3.8423Y-4.5568
X3.8882Y-4.4459
X3.8882Y-4.5378
X3.9072Y-4.4919
T2
X3.0265Y-4.4727
X3.0265Y-4.4727
X3.2924Y-4.3191
X3.2924Y-4.3191
X7.3044Y-1.5332
X7.3044Y-1.5332
X7.3044Y-1.8403
X7.3044Y-1.8403
X8.0573Y-2.2862
X8.0573Y-2.2862
X8.0573Y-2.5933
X8.0573Y-2.5933
X7.7362Y-4.545
X7.7362Y-4.545
X7.7362Y-4.8521
X7.7362Y-4.8521
X6.9833Y-4.545
X6.9833Y-4.545
X6.9833Y-4.8521
X6.9833Y-4.8521
X4.2926Y-2.9284
X4.2926Y-2.9284
X4.2926Y-3.2355
X4.2926Y-3.2355
X7.3044Y-3.0391
X7.3044Y-3.0391
X7.3044Y-3.3462
X7.3044Y-3.3462
X6.5514Y-2.013
X6.5514Y-2.013
X6.5514Y-2.3201
X6.5514Y-2.3201
X5.0455Y-3.5559
X5.0455Y-3.5559
X5.0455Y-3.8629
X5.0455Y-3.8629
X7.3044Y-3.7921
X7.3044Y-3.7921
X7.3044Y-4.0992
X7.3044Y-4.0992
X5.7985Y-2.6191
X5.7985Y-2.6191
X5.7985Y-2.9262
X5.7985Y-2.9262
X4.2926Y-3.6813
X4.2926Y-3.6813
X4.2926Y-3.9884
X4.2926Y-3.9884
X4.2926Y-2.1754
X4.2926Y-2.1754
X4.2926Y-2.4825
X4.2926Y-2.4825
X4.2926Y-1.4225
X4.2926Y-1.4225
X4.2926Y-1.7296
X4.2926Y-1.7296
X4.7244Y-4.4343
X4.7244Y-4.4343
X4.7244Y-4.7414
X4.7244Y-4.7414
X6.2303Y-4.3088
X6.2303Y-4.3088
X6.2303Y-4.6159
X6.2303Y-4.6159
X5.0455Y-2.8029
X5.0455Y-2.8029
X5.0455Y-3.11
X5.0455Y-3.11
X8.0573Y-3.0391
X8.0573Y-3.0391
X8.0573Y-3.3462
X8.0573Y-3.3462
X5.7985Y-1.8654
X5.7985Y-1.8654
X5.7985Y-2.1725
X5.7985Y-2.1725
X2.8199Y-3.3935
X2.8199Y-3.3935
X2.8199Y-3.7005
X2.8199Y-3.7005
X6.5514Y-3.5189
X6.5514Y-3.5189
X6.5514Y-3.826
X6.5514Y-3.826
X8.0573Y-1.5332
X8.0573Y-1.5332
X8.0573Y-1.8403
X8.0573Y-1.8403
X6.5514Y-2.766
X6.5514Y-2.766
X6.5514Y-3.0731
X6.5514Y-3.0731
X5.0455Y-1.3007
X5.0455Y-1.3007
X5.0455Y-1.6078
X5.0455Y-1.6078
X5.4774Y-4.3457
X5.4774Y-4.3457
X5.4774Y-4.6528
X5.4774Y-4.6528
X8.0573Y-3.7921
X8.0573Y-3.7921
X8.0573Y-4.0992
X8.0573Y-4.0992
X5.7985Y-1.1088
X5.7985Y-1.1088
X5.7985Y-1.4158
X5.7985Y-1.4158
X7.3044Y-2.2862
X7.3044Y-2.2862
X7.3044Y-2.5933
X7.3044Y-2.5933
X5.7985Y-3.3713
X5.7985Y-3.3713
X5.7985Y-3.6784
X5.7985Y-3.6784
X6.5514Y-1.2601
X6.5514Y-1.2601
X6.5514Y-1.5672
X6.5514Y-1.5672
X5.0455Y-2.05
X5.0455Y-2.05
X5.0455Y-2.357
X5.0455Y-2.357
T3
X2.6633Y-1.135
X2.6633Y-1.235
X2.6633Y-1.335
X2.6633Y-1.435
X2.6633Y-1.535
X2.6633Y-1.635
X2.6633Y-1.735
X2.6633Y-1.835
X2.6633Y-1.935
X2.6633Y-2.035
X2.6633Y-2.135
X2.6633Y-2.235
X2.7145Y-1.182
X2.7145Y-1.282
X2.7145Y-1.382
X2.7145Y-1.482
X2.7145Y-1.582
X2.7145Y-1.682
X2.7145Y-1.782
X2.7145Y-1.882
X2.7145Y-1.982
X2.7145Y-2.082
X2.7145Y-2.182
X2.7145Y-2.282
X3.2633Y-1.135
X3.2633Y-1.235
X3.2633Y-1.335
X3.2633Y-1.435
X3.2633Y-1.535
X3.2633Y-1.635
X3.2633Y-1.735
X3.2633Y-1.835
X3.2633Y-1.935
X3.2633Y-2.035
X3.2633Y-2.135
X3.2633Y-2.235
X3.3145Y-1.182
X3.3145Y-1.282
X3.3145Y-1.382
X3.3145Y-1.482
X3.3145Y-1.582
X3.3145Y-1.682
X3.3145Y-1.782
X3.3145Y-1.882
X3.3145Y-1.982
X3.3145Y-2.082
X3.3145Y-2.182
X3.3145Y-2.282
T4
X2.6796Y-3.4547
X2.6796Y-3.5531
X2.6796Y-3.6516
X3.2505Y-3.4547
X3.2505Y-3.6516
X2.842Y-2.4582
X2.942Y-2.4582
X3.042Y-2.4582
X3.142Y-2.4582
T5
X3.141Y-2.7313
X3.141Y-2.9872
X3.3182Y-2.7313
X3.3182Y-2.9872
T6
X6.7311Y-2.5893
X6.9279Y-2.672
X7.1248Y-2.5893
X4.1511Y-4.7375
X4.3479Y-4.8201
X4.5448Y-4.7375
X6.7311Y-1.8364
X6.9279Y-1.919
X7.1248Y-1.8364
X3.7192Y-2.4786
X3.9161Y-2.5613
X4.1129Y-2.4786
X3.7192Y-3.9845
X3.9161Y-4.0672
X4.1129Y-3.9845
X4.4722Y-1.6001
X4.669Y-1.6828
X4.8659Y-1.6001
X5.2251Y-1.4156
X5.422Y-1.4983
X5.6188Y-1.4156
X7.1629Y-4.8482
X7.3597Y-4.9309
X7.5566Y-4.8482
X5.2251Y-2.9215
X5.422Y-3.0042
X5.6188Y-2.9215
X5.9781Y-2.3162
X6.175Y-2.3989
X6.3718Y-2.3162
X3.7192Y-1.7256
X3.9161Y-1.8083
X4.1129Y-1.7256
X5.9781Y-3.8221
X6.175Y-3.9048
X6.3718Y-3.8221
X7.484Y-4.0952
X7.6809Y-4.1779
X7.8777Y-4.0952
X4.904Y-4.6489
X5.1009Y-4.7315
X5.2977Y-4.6489
X5.9781Y-1.5632
X6.175Y-1.6459
X6.3718Y-1.5632
X4.4722Y-3.859
X4.669Y-3.9417
X4.8659Y-3.859
X4.4722Y-3.1061
X4.669Y-3.1887
X4.8659Y-3.1061
X7.484Y-1.8364
X7.6809Y-1.919
X7.8777Y-1.8364
X5.657Y-4.612
X5.8538Y-4.6946
X6.0507Y-4.612
X7.484Y-3.3423
X7.6809Y-3.425
X7.8777Y-3.3423
X6.7311Y-3.3423
X6.9279Y-3.425
X7.1248Y-3.3423
X3.1861Y-4.7062
X3.213Y-4.9181
X3.383Y-5.0472
X7.484Y-2.5893
X7.6809Y-2.672
X7.8777Y-2.5893
X5.2251Y-2.1686
X5.422Y-2.2512
X5.6188Y-2.1686
X3.7192Y-3.2315
X3.9161Y-3.3142
X4.1129Y-3.2315
X4.4722Y-2.3531
X4.669Y-2.4358
X4.8659Y-2.3531
X5.9781Y-3.0691
X6.175Y-3.1518
X6.3718Y-3.0691
X6.7311Y-4.0952
X6.9279Y-4.1779
X7.1248Y-4.0952
X5.2251Y-3.6745
X5.422Y-3.7571
X5.6188Y-3.6745
X6.4099Y-4.8482
X6.6068Y-4.9309
X6.8036Y-4.8482
T8
X4.2741Y-3.4547
X6.389Y-4.1745
X6.7655Y-1.2032
X7.9023Y-4.4697
X4.195Y-1.0757
X5.78Y-2.3954
X3.8423Y-4.4919
X3.4104Y-2.5431
X2.5615Y-2.5431
X7.3044Y-2.8162
T7
G00X2.9651Y-3.3327
M15
G01X2.9847Y-3.3327
M16
G05
G00X2.9651Y-3.7736
M15
G01X2.9847Y-3.7736
M16
G05
T0
M30
