%TF.GenerationSoftware,KiCad,Pcbnew,(5.1.8)-1*%
%TF.CreationDate,2021-02-13T18:12:48-08:00*%
%TF.ProjectId,Dualies,4475616c-6965-4732-9e6b-696361645f70,rev?*%
%TF.SameCoordinates,Original*%
%TF.FileFunction,Soldermask,Bot*%
%TF.FilePolarity,Negative*%
%FSLAX46Y46*%
G04 Gerber Fmt 4.6, Leading zero omitted, Abs format (unit mm)*
G04 Created by KiCad (PCBNEW (5.1.8)-1) date 2021-02-13 18:12:48*
%MOMM*%
%LPD*%
G01*
G04 APERTURE LIST*
%ADD10R,1.700000X1.000000*%
%ADD11C,0.100000*%
%ADD12C,1.200000*%
%ADD13C,2.000000*%
%ADD14C,1.700000*%
%ADD15C,3.400000*%
%ADD16C,4.400000*%
%ADD17C,0.700000*%
%ADD18R,1.600000X1.600000*%
%ADD19C,1.600000*%
%ADD20R,1.200000X1.200000*%
%ADD21R,1.200000X2.500000*%
%ADD22C,1.500000*%
%ADD23R,1.700000X1.700000*%
%ADD24O,1.700000X1.700000*%
%ADD25R,1.500000X1.000000*%
%ADD26R,3.000000X2.500000*%
%ADD27R,2.000000X2.000000*%
%ADD28C,1.524000*%
G04 APERTURE END LIST*
D10*
%TO.C,LED0*%
X96718750Y-36043750D03*
X102218750Y-34643750D03*
X96718750Y-34643750D03*
X102218750Y-36043750D03*
%TD*%
%TO.C,LED29*%
X184187500Y-115356250D03*
X189687500Y-113956250D03*
X184187500Y-113956250D03*
X189687500Y-115356250D03*
%TD*%
%TO.C,LED1*%
X115843750Y-32856250D03*
X121343750Y-31456250D03*
X115843750Y-31456250D03*
X121343750Y-32856250D03*
%TD*%
%TO.C,LED2*%
X134968750Y-28168750D03*
X140468750Y-26768750D03*
X134968750Y-26768750D03*
X140468750Y-28168750D03*
%TD*%
%TO.C,LED3*%
X154093750Y-31918750D03*
X159593750Y-30518750D03*
X154093750Y-30518750D03*
X159593750Y-31918750D03*
%TD*%
%TO.C,LED4*%
X173218750Y-38856250D03*
X178718750Y-37456250D03*
X173218750Y-37456250D03*
X178718750Y-38856250D03*
%TD*%
%TO.C,LED5*%
X192343750Y-38856250D03*
X197843750Y-37456250D03*
X192343750Y-37456250D03*
X197843750Y-38856250D03*
%TD*%
%TO.C,LED6*%
X102218750Y-53768750D03*
X96718750Y-55168750D03*
X102218750Y-55168750D03*
X96718750Y-53768750D03*
%TD*%
%TO.C,LED7*%
X121343750Y-50581250D03*
X115843750Y-51981250D03*
X121343750Y-51981250D03*
X115843750Y-50581250D03*
%TD*%
%TO.C,LED8*%
X140468750Y-45893750D03*
X134968750Y-47293750D03*
X140468750Y-47293750D03*
X134968750Y-45893750D03*
%TD*%
%TO.C,LED9*%
X159593750Y-49643750D03*
X154093750Y-51043750D03*
X159593750Y-51043750D03*
X154093750Y-49643750D03*
%TD*%
%TO.C,LED10*%
X178718750Y-56581250D03*
X173218750Y-57981250D03*
X178718750Y-57981250D03*
X173218750Y-56581250D03*
%TD*%
%TO.C,LED11*%
X197843750Y-56581250D03*
X192343750Y-57981250D03*
X197843750Y-57981250D03*
X192343750Y-56581250D03*
%TD*%
%TO.C,LED12*%
X96718750Y-74293750D03*
X102218750Y-72893750D03*
X96718750Y-72893750D03*
X102218750Y-74293750D03*
%TD*%
%TO.C,LED13*%
X115843750Y-71106250D03*
X121343750Y-69706250D03*
X115843750Y-69706250D03*
X121343750Y-71106250D03*
%TD*%
%TO.C,LED14*%
X134968750Y-66418750D03*
X140468750Y-65018750D03*
X134968750Y-65018750D03*
X140468750Y-66418750D03*
%TD*%
%TO.C,LED15*%
X154093750Y-70168750D03*
X159593750Y-68768750D03*
X154093750Y-68768750D03*
X159593750Y-70168750D03*
%TD*%
%TO.C,LED16*%
X173218750Y-77106250D03*
X178718750Y-75706250D03*
X173218750Y-75706250D03*
X178718750Y-77106250D03*
%TD*%
%TO.C,LED17*%
X192343750Y-77106250D03*
X197843750Y-75706250D03*
X192343750Y-75706250D03*
X197843750Y-77106250D03*
%TD*%
%TO.C,LED18*%
X102218750Y-92018750D03*
X96718750Y-93418750D03*
X102218750Y-93418750D03*
X96718750Y-92018750D03*
%TD*%
%TO.C,LED19*%
X121343750Y-88831250D03*
X115843750Y-90231250D03*
X121343750Y-90231250D03*
X115843750Y-88831250D03*
%TD*%
%TO.C,LED20*%
X140468750Y-84143750D03*
X134968750Y-85543750D03*
X140468750Y-85543750D03*
X134968750Y-84143750D03*
%TD*%
%TO.C,LED21*%
X159593750Y-87893750D03*
X154093750Y-89293750D03*
X159593750Y-89293750D03*
X154093750Y-87893750D03*
%TD*%
%TO.C,LED22*%
X178718750Y-94831250D03*
X173218750Y-96231250D03*
X178718750Y-96231250D03*
X173218750Y-94831250D03*
%TD*%
%TO.C,LED23*%
X197843750Y-94831250D03*
X192343750Y-96231250D03*
X197843750Y-96231250D03*
X192343750Y-94831250D03*
%TD*%
D11*
%TO.C,LED24*%
G36*
X89626795Y-118079552D02*
G01*
X88760769Y-118579552D01*
X87910769Y-117107308D01*
X88776795Y-116607308D01*
X89626795Y-118079552D01*
G37*
G36*
X93589231Y-122142692D02*
G01*
X92723205Y-122642692D01*
X91873205Y-121170448D01*
X92739231Y-120670448D01*
X93589231Y-122142692D01*
G37*
G36*
X90839231Y-117379552D02*
G01*
X89973205Y-117879552D01*
X89123205Y-116407308D01*
X89989231Y-115907308D01*
X90839231Y-117379552D01*
G37*
G36*
X92376795Y-122842692D02*
G01*
X91510769Y-123342692D01*
X90660769Y-121870448D01*
X91526795Y-121370448D01*
X92376795Y-122842692D01*
G37*
%TD*%
D10*
%TO.C,LED25*%
X107687500Y-112543750D03*
X113187500Y-111143750D03*
X107687500Y-111143750D03*
X113187500Y-112543750D03*
%TD*%
%TO.C,LED26*%
X126812500Y-110293750D03*
X132312500Y-108893750D03*
X126812500Y-108893750D03*
X132312500Y-110293750D03*
%TD*%
%TO.C,LED27*%
X145937500Y-109356250D03*
X151437500Y-107956250D03*
X145937500Y-107956250D03*
X151437500Y-109356250D03*
%TD*%
%TO.C,LED28*%
X165062500Y-115356250D03*
X170562500Y-113956250D03*
X165062500Y-113956250D03*
X170562500Y-115356250D03*
%TD*%
D12*
%TO.C,K11*%
X189873750Y-57768750D03*
X200313750Y-57768750D03*
D13*
X190093750Y-65768750D03*
X200093750Y-65768750D03*
X195093750Y-67868750D03*
D14*
X200593750Y-61968750D03*
X189593750Y-61968750D03*
D15*
X195093750Y-61968750D03*
%TD*%
D16*
%TO.C,REF\u002A\u002A*%
X65062500Y-64593750D03*
D17*
X66712500Y-64593750D03*
X66229226Y-65760476D03*
X65062500Y-66243750D03*
X63895774Y-65760476D03*
X63412500Y-64593750D03*
X63895774Y-63427024D03*
X65062500Y-62943750D03*
X66229226Y-63427024D03*
%TD*%
D16*
%TO.C,REF\u002A\u002A*%
X86625000Y-64593750D03*
D17*
X88275000Y-64593750D03*
X87791726Y-65760476D03*
X86625000Y-66243750D03*
X85458274Y-65760476D03*
X84975000Y-64593750D03*
X85458274Y-63427024D03*
X86625000Y-62943750D03*
X87791726Y-63427024D03*
%TD*%
D16*
%TO.C,REF\u002A\u002A*%
X185531250Y-71531250D03*
D17*
X187181250Y-71531250D03*
X186697976Y-72697976D03*
X185531250Y-73181250D03*
X184364524Y-72697976D03*
X183881250Y-71531250D03*
X184364524Y-70364524D03*
X185531250Y-69881250D03*
X186697976Y-70364524D03*
%TD*%
D16*
%TO.C,REF\u002A\u002A*%
X146812500Y-60843750D03*
D17*
X148462500Y-60843750D03*
X147979226Y-62010476D03*
X146812500Y-62493750D03*
X145645774Y-62010476D03*
X145162500Y-60843750D03*
X145645774Y-59677024D03*
X146812500Y-59193750D03*
X147979226Y-59677024D03*
%TD*%
%TO.C,REF\u002A\u002A*%
X98760476Y-112927024D03*
X97593750Y-112443750D03*
X96427024Y-112927024D03*
X95943750Y-114093750D03*
X96427024Y-115260476D03*
X97593750Y-115743750D03*
X98760476Y-115260476D03*
X99243750Y-114093750D03*
D16*
X97593750Y-114093750D03*
%TD*%
D17*
%TO.C,REF\u002A\u002A*%
X163447976Y-104864524D03*
X162281250Y-104381250D03*
X161114524Y-104864524D03*
X160631250Y-106031250D03*
X161114524Y-107197976D03*
X162281250Y-107681250D03*
X163447976Y-107197976D03*
X163931250Y-106031250D03*
D16*
X162281250Y-106031250D03*
%TD*%
D17*
%TO.C,REF\u002A\u002A*%
X201885476Y-112364524D03*
X200718750Y-111881250D03*
X199552024Y-112364524D03*
X199068750Y-113531250D03*
X199552024Y-114697976D03*
X200718750Y-115181250D03*
X201885476Y-114697976D03*
X202368750Y-113531250D03*
D16*
X200718750Y-113531250D03*
%TD*%
D17*
%TO.C,REF\u002A\u002A*%
X107718750Y-26156250D03*
X106552024Y-25672976D03*
X105385298Y-26156250D03*
X104902024Y-27322976D03*
X105385298Y-28489702D03*
X106552024Y-28972976D03*
X107718750Y-28489702D03*
X108202024Y-27322976D03*
D16*
X106552024Y-27322976D03*
%TD*%
D17*
%TO.C,REF\u002A\u002A*%
X173010476Y-29395774D03*
X171843750Y-28912500D03*
X170677024Y-29395774D03*
X170193750Y-30562500D03*
X170677024Y-31729226D03*
X171843750Y-32212500D03*
X173010476Y-31729226D03*
X173493750Y-30562500D03*
D16*
X171843750Y-30562500D03*
%TD*%
%TO.C,REF\u002A\u002A*%
X108562500Y-87750000D03*
D17*
X110212500Y-87750000D03*
X109729226Y-88916726D03*
X108562500Y-89400000D03*
X107395774Y-88916726D03*
X106912500Y-87750000D03*
X107395774Y-86583274D03*
X108562500Y-86100000D03*
X109729226Y-86583274D03*
%TD*%
D15*
%TO.C,K28*%
X167812500Y-119343750D03*
D14*
X162312500Y-119343750D03*
X173312500Y-119343750D03*
D13*
X167812500Y-125243750D03*
X172812500Y-123143750D03*
X162812500Y-123143750D03*
D12*
X173032500Y-115143750D03*
X162592500Y-115143750D03*
%TD*%
%TO.C,K8*%
X132498750Y-47081250D03*
X142938750Y-47081250D03*
D13*
X132718750Y-55081250D03*
X142718750Y-55081250D03*
X137718750Y-57181250D03*
D14*
X143218750Y-51281250D03*
X132218750Y-51281250D03*
D15*
X137718750Y-51281250D03*
%TD*%
D12*
%TO.C,K24*%
X87746057Y-115348097D03*
X92966057Y-124389403D03*
D13*
X80927853Y-119538623D03*
X85927853Y-128198877D03*
X81609200Y-124918750D03*
D14*
X89468750Y-126731890D03*
X83968750Y-117205610D03*
D15*
X86718750Y-121968750D03*
%TD*%
D18*
%TO.C,D0*%
X109031250Y-36131250D03*
D19*
X109031250Y-43931250D03*
X109031250Y-43931250D03*
D20*
X109031250Y-41606250D03*
D18*
X109031250Y-36131250D03*
D20*
X109031250Y-38456250D03*
%TD*%
%TO.C,D1*%
X128156250Y-35362500D03*
D18*
X128156250Y-33037500D03*
D20*
X128156250Y-38512500D03*
D19*
X128156250Y-40837500D03*
X128156250Y-40837500D03*
D18*
X128156250Y-33037500D03*
%TD*%
%TO.C,D2*%
X147281250Y-28162500D03*
D19*
X147281250Y-35962500D03*
X147281250Y-35962500D03*
D20*
X147281250Y-33637500D03*
D18*
X147281250Y-28162500D03*
D20*
X147281250Y-30487500D03*
%TD*%
%TO.C,D3*%
X166406250Y-34331250D03*
D18*
X166406250Y-32006250D03*
D20*
X166406250Y-37481250D03*
D19*
X166406250Y-39806250D03*
X166406250Y-39806250D03*
D18*
X166406250Y-32006250D03*
%TD*%
%TO.C,D4*%
X185531250Y-38943750D03*
D19*
X185531250Y-46743750D03*
X185531250Y-46743750D03*
D20*
X185531250Y-44418750D03*
D18*
X185531250Y-38943750D03*
D20*
X185531250Y-41268750D03*
%TD*%
D18*
%TO.C,D5*%
X204656250Y-38943750D03*
D19*
X204656250Y-46743750D03*
X204656250Y-46743750D03*
D20*
X204656250Y-44418750D03*
D18*
X204656250Y-38943750D03*
D20*
X204656250Y-41268750D03*
%TD*%
%TO.C,D6*%
X109031250Y-57581250D03*
D18*
X109031250Y-55256250D03*
D20*
X109031250Y-60731250D03*
D19*
X109031250Y-63056250D03*
X109031250Y-63056250D03*
D18*
X109031250Y-55256250D03*
%TD*%
%TO.C,D7*%
X128156250Y-52068750D03*
D19*
X128156250Y-59868750D03*
X128156250Y-59868750D03*
D20*
X128156250Y-57543750D03*
D18*
X128156250Y-52068750D03*
D20*
X128156250Y-54393750D03*
%TD*%
%TO.C,D8*%
X147281250Y-49706250D03*
D18*
X147281250Y-47381250D03*
D20*
X147281250Y-52856250D03*
D19*
X147281250Y-55181250D03*
X147281250Y-55181250D03*
D18*
X147281250Y-47381250D03*
%TD*%
%TO.C,D9*%
X166406250Y-51131250D03*
D19*
X166406250Y-58931250D03*
X166406250Y-58931250D03*
D20*
X166406250Y-56606250D03*
D18*
X166406250Y-51131250D03*
D20*
X166406250Y-53456250D03*
%TD*%
%TO.C,D10*%
X185531250Y-60393750D03*
D18*
X185531250Y-58068750D03*
D20*
X185531250Y-63543750D03*
D19*
X185531250Y-65868750D03*
X185531250Y-65868750D03*
D18*
X185531250Y-58068750D03*
%TD*%
D20*
%TO.C,D11*%
X204656250Y-60393750D03*
D18*
X204656250Y-58068750D03*
D20*
X204656250Y-63543750D03*
D19*
X204656250Y-65868750D03*
X204656250Y-65868750D03*
D18*
X204656250Y-58068750D03*
%TD*%
%TO.C,D12*%
X109031250Y-74381250D03*
D19*
X109031250Y-82181250D03*
X109031250Y-82181250D03*
D20*
X109031250Y-79856250D03*
D18*
X109031250Y-74381250D03*
D20*
X109031250Y-76706250D03*
%TD*%
%TO.C,D13*%
X128156250Y-73518750D03*
D18*
X128156250Y-71193750D03*
D20*
X128156250Y-76668750D03*
D19*
X128156250Y-78993750D03*
X128156250Y-78993750D03*
D18*
X128156250Y-71193750D03*
%TD*%
%TO.C,D14*%
X147281250Y-66525000D03*
D19*
X147281250Y-74325000D03*
X147281250Y-74325000D03*
D20*
X147281250Y-72000000D03*
D18*
X147281250Y-66525000D03*
D20*
X147281250Y-68850000D03*
%TD*%
%TO.C,D15*%
X166406250Y-72581250D03*
D18*
X166406250Y-70256250D03*
D20*
X166406250Y-75731250D03*
D19*
X166406250Y-78056250D03*
X166406250Y-78056250D03*
D18*
X166406250Y-70256250D03*
%TD*%
%TO.C,D16*%
X185531250Y-77193750D03*
D19*
X185531250Y-84993750D03*
X185531250Y-84993750D03*
D20*
X185531250Y-82668750D03*
D18*
X185531250Y-77193750D03*
D20*
X185531250Y-79518750D03*
%TD*%
%TO.C,D17*%
X204656250Y-79518750D03*
D18*
X204656250Y-77193750D03*
D20*
X204656250Y-82668750D03*
D19*
X204656250Y-84993750D03*
X204656250Y-84993750D03*
D18*
X204656250Y-77193750D03*
%TD*%
%TO.C,D18*%
X109031250Y-93506250D03*
D19*
X109031250Y-101306250D03*
X109031250Y-101306250D03*
D20*
X109031250Y-98981250D03*
D18*
X109031250Y-93506250D03*
D20*
X109031250Y-95831250D03*
%TD*%
D18*
%TO.C,D19*%
X128156250Y-90318750D03*
D19*
X128156250Y-98118750D03*
X128156250Y-98118750D03*
D20*
X128156250Y-95793750D03*
D18*
X128156250Y-90318750D03*
D20*
X128156250Y-92643750D03*
%TD*%
D18*
%TO.C,D20*%
X147281250Y-85631250D03*
D19*
X147281250Y-93431250D03*
X147281250Y-93431250D03*
D20*
X147281250Y-91106250D03*
D18*
X147281250Y-85631250D03*
D20*
X147281250Y-87956250D03*
%TD*%
%TO.C,D21*%
X166406250Y-91706250D03*
D18*
X166406250Y-89381250D03*
D20*
X166406250Y-94856250D03*
D19*
X166406250Y-97181250D03*
X166406250Y-97181250D03*
D18*
X166406250Y-89381250D03*
%TD*%
%TO.C,D22*%
X185531250Y-96318750D03*
D19*
X185531250Y-104118750D03*
X185531250Y-104118750D03*
D20*
X185531250Y-101793750D03*
D18*
X185531250Y-96318750D03*
D20*
X185531250Y-98643750D03*
%TD*%
%TO.C,D23*%
X204656250Y-98643750D03*
D18*
X204656250Y-96318750D03*
D20*
X204656250Y-101793750D03*
D19*
X204656250Y-104118750D03*
X204656250Y-104118750D03*
D18*
X204656250Y-96318750D03*
%TD*%
D11*
%TO.C,D24*%
G36*
X83920319Y-108613430D02*
G01*
X84720319Y-109999070D01*
X83334679Y-110799070D01*
X82534679Y-109413430D01*
X83920319Y-108613430D01*
G37*
D19*
X76872501Y-113606250D03*
X76872501Y-113606250D03*
D11*
G36*
X79105625Y-111624135D02*
G01*
X79705625Y-112663365D01*
X78666395Y-113263365D01*
X78066395Y-112224135D01*
X79105625Y-111624135D01*
G37*
G36*
X83920319Y-108613430D02*
G01*
X84720319Y-109999070D01*
X83334679Y-110799070D01*
X82534679Y-109413430D01*
X83920319Y-108613430D01*
G37*
G36*
X81833605Y-110049135D02*
G01*
X82433605Y-111088365D01*
X81394375Y-111688365D01*
X80794375Y-110649135D01*
X81833605Y-110049135D01*
G37*
%TD*%
D20*
%TO.C,D25*%
X120000000Y-114956250D03*
D18*
X120000000Y-112631250D03*
D20*
X120000000Y-118106250D03*
D19*
X120000000Y-120431250D03*
X120000000Y-120431250D03*
D18*
X120000000Y-112631250D03*
%TD*%
%TO.C,D26*%
X139125000Y-110381250D03*
D19*
X139125000Y-118181250D03*
X139125000Y-118181250D03*
D20*
X139125000Y-115856250D03*
D18*
X139125000Y-110381250D03*
D20*
X139125000Y-112706250D03*
%TD*%
%TO.C,D27*%
X158250000Y-111768750D03*
D18*
X158250000Y-109443750D03*
D20*
X158250000Y-114918750D03*
D19*
X158250000Y-117243750D03*
X158250000Y-117243750D03*
D18*
X158250000Y-109443750D03*
%TD*%
%TO.C,D28*%
X177375000Y-115443750D03*
D19*
X177375000Y-123243750D03*
X177375000Y-123243750D03*
D20*
X177375000Y-120918750D03*
D18*
X177375000Y-115443750D03*
D20*
X177375000Y-117768750D03*
%TD*%
%TO.C,D29*%
X196500000Y-117768750D03*
D18*
X196500000Y-115443750D03*
D20*
X196500000Y-120918750D03*
D19*
X196500000Y-123243750D03*
X196500000Y-123243750D03*
D18*
X196500000Y-115443750D03*
%TD*%
D20*
%TO.C,D30*%
X71625000Y-88518750D03*
D18*
X71625000Y-86193750D03*
D20*
X71625000Y-91668750D03*
D19*
X71625000Y-93993750D03*
X71625000Y-93993750D03*
D18*
X71625000Y-86193750D03*
%TD*%
D21*
%TO.C,J0*%
X75391750Y-69406250D03*
X74291750Y-75906250D03*
X70291750Y-75906250D03*
D22*
X65691750Y-72656250D03*
X72691750Y-72656250D03*
D21*
X67291750Y-75906250D03*
D22*
X72691750Y-72656250D03*
X65691750Y-72656250D03*
%TD*%
D23*
%TO.C,J1*%
X72187500Y-62437500D03*
D24*
X74727500Y-62437500D03*
X77267500Y-62437500D03*
X79807500Y-62437500D03*
%TD*%
D25*
%TO.C,JP5*%
X71718750Y-57006250D03*
X71718750Y-58306250D03*
%TD*%
%TO.C,JP6*%
X74531250Y-58306250D03*
X74531250Y-57006250D03*
%TD*%
%TO.C,JP7*%
X77343750Y-57006250D03*
X77343750Y-58306250D03*
%TD*%
%TO.C,JP8*%
X80156250Y-58306250D03*
X80156250Y-57006250D03*
%TD*%
D15*
%TO.C,K0*%
X99468750Y-40031250D03*
D14*
X93968750Y-40031250D03*
X104968750Y-40031250D03*
D13*
X99468750Y-45931250D03*
X104468750Y-43831250D03*
X94468750Y-43831250D03*
D12*
X104688750Y-35831250D03*
X94248750Y-35831250D03*
%TD*%
%TO.C,K1*%
X113373750Y-32643750D03*
X123813750Y-32643750D03*
D13*
X113593750Y-40643750D03*
X123593750Y-40643750D03*
X118593750Y-42743750D03*
D14*
X124093750Y-36843750D03*
X113093750Y-36843750D03*
D15*
X118593750Y-36843750D03*
%TD*%
%TO.C,K2*%
X137718750Y-32156250D03*
D14*
X132218750Y-32156250D03*
X143218750Y-32156250D03*
D13*
X137718750Y-38056250D03*
X142718750Y-35956250D03*
X132718750Y-35956250D03*
D12*
X142938750Y-27956250D03*
X132498750Y-27956250D03*
%TD*%
D15*
%TO.C,K3*%
X156843750Y-35906250D03*
D14*
X151343750Y-35906250D03*
X162343750Y-35906250D03*
D13*
X156843750Y-41806250D03*
X161843750Y-39706250D03*
X151843750Y-39706250D03*
D12*
X162063750Y-31706250D03*
X151623750Y-31706250D03*
%TD*%
%TO.C,K4*%
X170748750Y-38643750D03*
X181188750Y-38643750D03*
D13*
X170968750Y-46643750D03*
X180968750Y-46643750D03*
X175968750Y-48743750D03*
D14*
X181468750Y-42843750D03*
X170468750Y-42843750D03*
D15*
X175968750Y-42843750D03*
%TD*%
%TO.C,K5*%
X195093750Y-42843750D03*
D14*
X189593750Y-42843750D03*
X200593750Y-42843750D03*
D13*
X195093750Y-48743750D03*
X200093750Y-46643750D03*
X190093750Y-46643750D03*
D12*
X200313750Y-38643750D03*
X189873750Y-38643750D03*
%TD*%
D15*
%TO.C,K6*%
X99468750Y-59156250D03*
D14*
X93968750Y-59156250D03*
X104968750Y-59156250D03*
D13*
X99468750Y-65056250D03*
X104468750Y-62956250D03*
X94468750Y-62956250D03*
D12*
X104688750Y-54956250D03*
X94248750Y-54956250D03*
%TD*%
D15*
%TO.C,K7*%
X118593750Y-55968750D03*
D14*
X113093750Y-55968750D03*
X124093750Y-55968750D03*
D13*
X118593750Y-61868750D03*
X123593750Y-59768750D03*
X113593750Y-59768750D03*
D12*
X123813750Y-51768750D03*
X113373750Y-51768750D03*
%TD*%
%TO.C,K9*%
X151623750Y-50831250D03*
X162063750Y-50831250D03*
D13*
X151843750Y-58831250D03*
X161843750Y-58831250D03*
X156843750Y-60931250D03*
D14*
X162343750Y-55031250D03*
X151343750Y-55031250D03*
D15*
X156843750Y-55031250D03*
%TD*%
D12*
%TO.C,K10*%
X170748750Y-57768750D03*
X181188750Y-57768750D03*
D13*
X170968750Y-65768750D03*
X180968750Y-65768750D03*
X175968750Y-67868750D03*
D14*
X181468750Y-61968750D03*
X170468750Y-61968750D03*
D15*
X175968750Y-61968750D03*
%TD*%
D12*
%TO.C,K12*%
X94248750Y-74081250D03*
X104688750Y-74081250D03*
D13*
X94468750Y-82081250D03*
X104468750Y-82081250D03*
X99468750Y-84181250D03*
D14*
X104968750Y-78281250D03*
X93968750Y-78281250D03*
D15*
X99468750Y-78281250D03*
%TD*%
D12*
%TO.C,K13*%
X113373750Y-70893750D03*
X123813750Y-70893750D03*
D13*
X113593750Y-78893750D03*
X123593750Y-78893750D03*
X118593750Y-80993750D03*
D14*
X124093750Y-75093750D03*
X113093750Y-75093750D03*
D15*
X118593750Y-75093750D03*
%TD*%
%TO.C,K14*%
X137718750Y-70406250D03*
D14*
X132218750Y-70406250D03*
X143218750Y-70406250D03*
D13*
X137718750Y-76306250D03*
X142718750Y-74206250D03*
X132718750Y-74206250D03*
D12*
X142938750Y-66206250D03*
X132498750Y-66206250D03*
%TD*%
D15*
%TO.C,K15*%
X156843750Y-74156250D03*
D14*
X151343750Y-74156250D03*
X162343750Y-74156250D03*
D13*
X156843750Y-80056250D03*
X161843750Y-77956250D03*
X151843750Y-77956250D03*
D12*
X162063750Y-69956250D03*
X151623750Y-69956250D03*
%TD*%
%TO.C,K16*%
X170748750Y-76893750D03*
X181188750Y-76893750D03*
D13*
X170968750Y-84893750D03*
X180968750Y-84893750D03*
X175968750Y-86993750D03*
D14*
X181468750Y-81093750D03*
X170468750Y-81093750D03*
D15*
X175968750Y-81093750D03*
%TD*%
%TO.C,K17*%
X195093750Y-81093750D03*
D14*
X189593750Y-81093750D03*
X200593750Y-81093750D03*
D13*
X195093750Y-86993750D03*
X200093750Y-84893750D03*
X190093750Y-84893750D03*
D12*
X200313750Y-76893750D03*
X189873750Y-76893750D03*
%TD*%
D15*
%TO.C,K18*%
X99468750Y-97406250D03*
D14*
X93968750Y-97406250D03*
X104968750Y-97406250D03*
D13*
X99468750Y-103306250D03*
X104468750Y-101206250D03*
X94468750Y-101206250D03*
D12*
X104688750Y-93206250D03*
X94248750Y-93206250D03*
%TD*%
D15*
%TO.C,K19*%
X118593750Y-94218750D03*
D14*
X113093750Y-94218750D03*
X124093750Y-94218750D03*
D13*
X118593750Y-100118750D03*
X123593750Y-98018750D03*
X113593750Y-98018750D03*
D12*
X123813750Y-90018750D03*
X113373750Y-90018750D03*
%TD*%
D15*
%TO.C,K20*%
X137718750Y-89531250D03*
D14*
X132218750Y-89531250D03*
X143218750Y-89531250D03*
D13*
X137718750Y-95431250D03*
X142718750Y-93331250D03*
X132718750Y-93331250D03*
D12*
X142938750Y-85331250D03*
X132498750Y-85331250D03*
%TD*%
%TO.C,K21*%
X151623750Y-89081250D03*
X162063750Y-89081250D03*
D13*
X151843750Y-97081250D03*
X161843750Y-97081250D03*
X156843750Y-99181250D03*
D14*
X162343750Y-93281250D03*
X151343750Y-93281250D03*
D15*
X156843750Y-93281250D03*
%TD*%
D12*
%TO.C,K22*%
X170748750Y-96018750D03*
X181188750Y-96018750D03*
D13*
X170968750Y-104018750D03*
X180968750Y-104018750D03*
X175968750Y-106118750D03*
D14*
X181468750Y-100218750D03*
X170468750Y-100218750D03*
D15*
X175968750Y-100218750D03*
%TD*%
D12*
%TO.C,K23*%
X189873750Y-96018750D03*
X200313750Y-96018750D03*
D13*
X190093750Y-104018750D03*
X200093750Y-104018750D03*
X195093750Y-106118750D03*
D14*
X200593750Y-100218750D03*
X189593750Y-100218750D03*
D15*
X195093750Y-100218750D03*
%TD*%
D12*
%TO.C,K25*%
X105217500Y-112331250D03*
X115657500Y-112331250D03*
D13*
X105437500Y-120331250D03*
X115437500Y-120331250D03*
X110437500Y-122431250D03*
D14*
X115937500Y-116531250D03*
X104937500Y-116531250D03*
D15*
X110437500Y-116531250D03*
%TD*%
D12*
%TO.C,K26*%
X124342500Y-110081250D03*
X134782500Y-110081250D03*
D13*
X124562500Y-118081250D03*
X134562500Y-118081250D03*
X129562500Y-120181250D03*
D14*
X135062500Y-114281250D03*
X124062500Y-114281250D03*
D15*
X129562500Y-114281250D03*
%TD*%
%TO.C,K27*%
X148687500Y-113343750D03*
D14*
X143187500Y-113343750D03*
X154187500Y-113343750D03*
D13*
X148687500Y-119243750D03*
X153687500Y-117143750D03*
X143687500Y-117143750D03*
D12*
X153907500Y-109143750D03*
X143467500Y-109143750D03*
%TD*%
D15*
%TO.C,K29*%
X186937500Y-119343750D03*
D14*
X181437500Y-119343750D03*
X192437500Y-119343750D03*
D13*
X186937500Y-125243750D03*
X191937500Y-123143750D03*
X181937500Y-123143750D03*
D12*
X192157500Y-115143750D03*
X181717500Y-115143750D03*
%TD*%
D13*
%TO.C,SW0*%
X79781250Y-69375000D03*
X84281250Y-69375000D03*
X79781250Y-75875000D03*
X84281250Y-75875000D03*
%TD*%
%TO.C,SW1*%
X82562500Y-92750000D03*
X82562500Y-87750000D03*
D26*
X75562500Y-95850000D03*
X75562500Y-84650000D03*
D13*
X68062500Y-92750000D03*
X68062500Y-90250000D03*
D27*
X68062500Y-87750000D03*
%TD*%
D28*
%TO.C,U0*%
X68947500Y-35103750D03*
X84187500Y-52883750D03*
X68947500Y-45263750D03*
X84187500Y-42723750D03*
X84187500Y-37643750D03*
X68947500Y-55423750D03*
X84187500Y-35103750D03*
X84187500Y-30023750D03*
X68947500Y-50343750D03*
X84187500Y-57963750D03*
X68947500Y-42723750D03*
X68947500Y-32563750D03*
X68947500Y-37643750D03*
X68947500Y-40183750D03*
X68947500Y-52883750D03*
X68947500Y-47803750D03*
X84187500Y-50343750D03*
X84187500Y-47803750D03*
X68947500Y-57963750D03*
X84187500Y-55423750D03*
X84187500Y-32563750D03*
X68947500Y-30023750D03*
X84187500Y-45263750D03*
X84187500Y-40183750D03*
X67648685Y-28828005D03*
X67648685Y-31368005D03*
X67648685Y-33908005D03*
X67648685Y-36448005D03*
X67648685Y-38988005D03*
X67648685Y-41528005D03*
X67648685Y-44068005D03*
X67648685Y-46608005D03*
X67648685Y-49148005D03*
X67648685Y-51688005D03*
X67648685Y-54228005D03*
X67648685Y-56768005D03*
X82888685Y-56768005D03*
X82888685Y-54228005D03*
X82888685Y-51688005D03*
X82888685Y-49148005D03*
X82888685Y-46608005D03*
X82888685Y-44068005D03*
X82888685Y-41528005D03*
X82888685Y-38988005D03*
X82888685Y-36448005D03*
X82888685Y-33908005D03*
X82888685Y-31368005D03*
X82888685Y-28828005D03*
%TD*%
M02*
