%TF.GenerationSoftware,KiCad,Pcbnew,(5.1.8)-1*%
%TF.CreationDate,2021-02-13T18:12:48-08:00*%
%TF.ProjectId,Dualies,4475616c-6965-4732-9e6b-696361645f70,rev?*%
%TF.SameCoordinates,Original*%
%TF.FileFunction,Legend,Bot*%
%TF.FilePolarity,Positive*%
%FSLAX46Y46*%
G04 Gerber Fmt 4.6, Leading zero omitted, Abs format (unit mm)*
G04 Created by KiCad (PCBNEW (5.1.8)-1) date 2021-02-13 18:12:48*
%MOMM*%
%LPD*%
G01*
G04 APERTURE LIST*
%ADD10C,0.120000*%
%ADD11C,0.200000*%
%ADD12C,0.250000*%
%ADD13C,0.150000*%
G04 APERTURE END LIST*
D10*
%TO.C,LED0*%
X95568750Y-33493750D02*
X95568750Y-35093750D01*
X95568750Y-33493750D02*
X103368750Y-33493750D01*
X103368750Y-37193750D02*
X95568750Y-37193750D01*
X95595250Y-34137250D02*
X96230250Y-33502250D01*
%TO.C,LED29*%
X183037500Y-112806250D02*
X183037500Y-114406250D01*
X183037500Y-112806250D02*
X190837500Y-112806250D01*
X190837500Y-116506250D02*
X183037500Y-116506250D01*
X183064000Y-113449750D02*
X183699000Y-112814750D01*
%TO.C,LED1*%
X114693750Y-30306250D02*
X114693750Y-31906250D01*
X114693750Y-30306250D02*
X122493750Y-30306250D01*
X122493750Y-34006250D02*
X114693750Y-34006250D01*
X114720250Y-30949750D02*
X115355250Y-30314750D01*
%TO.C,LED2*%
X133818750Y-25618750D02*
X133818750Y-27218750D01*
X133818750Y-25618750D02*
X141618750Y-25618750D01*
X141618750Y-29318750D02*
X133818750Y-29318750D01*
X133845250Y-26262250D02*
X134480250Y-25627250D01*
%TO.C,LED3*%
X152943750Y-29368750D02*
X152943750Y-30968750D01*
X152943750Y-29368750D02*
X160743750Y-29368750D01*
X160743750Y-33068750D02*
X152943750Y-33068750D01*
X152970250Y-30012250D02*
X153605250Y-29377250D01*
%TO.C,LED4*%
X172068750Y-36306250D02*
X172068750Y-37906250D01*
X172068750Y-36306250D02*
X179868750Y-36306250D01*
X179868750Y-40006250D02*
X172068750Y-40006250D01*
X172095250Y-36949750D02*
X172730250Y-36314750D01*
%TO.C,LED5*%
X191193750Y-36306250D02*
X191193750Y-37906250D01*
X191193750Y-36306250D02*
X198993750Y-36306250D01*
X198993750Y-40006250D02*
X191193750Y-40006250D01*
X191220250Y-36949750D02*
X191855250Y-36314750D01*
%TO.C,LED6*%
X103368750Y-56318750D02*
X103368750Y-54718750D01*
X103368750Y-56318750D02*
X95568750Y-56318750D01*
X95568750Y-52618750D02*
X103368750Y-52618750D01*
X103342250Y-55675250D02*
X102707250Y-56310250D01*
%TO.C,LED7*%
X122493750Y-53131250D02*
X122493750Y-51531250D01*
X122493750Y-53131250D02*
X114693750Y-53131250D01*
X114693750Y-49431250D02*
X122493750Y-49431250D01*
X122467250Y-52487750D02*
X121832250Y-53122750D01*
%TO.C,LED8*%
X141618750Y-48443750D02*
X141618750Y-46843750D01*
X141618750Y-48443750D02*
X133818750Y-48443750D01*
X133818750Y-44743750D02*
X141618750Y-44743750D01*
X141592250Y-47800250D02*
X140957250Y-48435250D01*
%TO.C,LED9*%
X160743750Y-52193750D02*
X160743750Y-50593750D01*
X160743750Y-52193750D02*
X152943750Y-52193750D01*
X152943750Y-48493750D02*
X160743750Y-48493750D01*
X160717250Y-51550250D02*
X160082250Y-52185250D01*
%TO.C,LED10*%
X179868750Y-59131250D02*
X179868750Y-57531250D01*
X179868750Y-59131250D02*
X172068750Y-59131250D01*
X172068750Y-55431250D02*
X179868750Y-55431250D01*
X179842250Y-58487750D02*
X179207250Y-59122750D01*
%TO.C,LED11*%
X198993750Y-59131250D02*
X198993750Y-57531250D01*
X198993750Y-59131250D02*
X191193750Y-59131250D01*
X191193750Y-55431250D02*
X198993750Y-55431250D01*
X198967250Y-58487750D02*
X198332250Y-59122750D01*
%TO.C,LED12*%
X95568750Y-71743750D02*
X95568750Y-73343750D01*
X95568750Y-71743750D02*
X103368750Y-71743750D01*
X103368750Y-75443750D02*
X95568750Y-75443750D01*
X95595250Y-72387250D02*
X96230250Y-71752250D01*
%TO.C,LED13*%
X114693750Y-68556250D02*
X114693750Y-70156250D01*
X114693750Y-68556250D02*
X122493750Y-68556250D01*
X122493750Y-72256250D02*
X114693750Y-72256250D01*
X114720250Y-69199750D02*
X115355250Y-68564750D01*
%TO.C,LED14*%
X133818750Y-63868750D02*
X133818750Y-65468750D01*
X133818750Y-63868750D02*
X141618750Y-63868750D01*
X141618750Y-67568750D02*
X133818750Y-67568750D01*
X133845250Y-64512250D02*
X134480250Y-63877250D01*
%TO.C,LED15*%
X152943750Y-67618750D02*
X152943750Y-69218750D01*
X152943750Y-67618750D02*
X160743750Y-67618750D01*
X160743750Y-71318750D02*
X152943750Y-71318750D01*
X152970250Y-68262250D02*
X153605250Y-67627250D01*
%TO.C,LED16*%
X172068750Y-74556250D02*
X172068750Y-76156250D01*
X172068750Y-74556250D02*
X179868750Y-74556250D01*
X179868750Y-78256250D02*
X172068750Y-78256250D01*
X172095250Y-75199750D02*
X172730250Y-74564750D01*
%TO.C,LED17*%
X191193750Y-74556250D02*
X191193750Y-76156250D01*
X191193750Y-74556250D02*
X198993750Y-74556250D01*
X198993750Y-78256250D02*
X191193750Y-78256250D01*
X191220250Y-75199750D02*
X191855250Y-74564750D01*
%TO.C,LED18*%
X103368750Y-94568750D02*
X103368750Y-92968750D01*
X103368750Y-94568750D02*
X95568750Y-94568750D01*
X95568750Y-90868750D02*
X103368750Y-90868750D01*
X103342250Y-93925250D02*
X102707250Y-94560250D01*
%TO.C,LED19*%
X122493750Y-91381250D02*
X122493750Y-89781250D01*
X122493750Y-91381250D02*
X114693750Y-91381250D01*
X114693750Y-87681250D02*
X122493750Y-87681250D01*
X122467250Y-90737750D02*
X121832250Y-91372750D01*
%TO.C,LED20*%
X141618750Y-86693750D02*
X141618750Y-85093750D01*
X141618750Y-86693750D02*
X133818750Y-86693750D01*
X133818750Y-82993750D02*
X141618750Y-82993750D01*
X141592250Y-86050250D02*
X140957250Y-86685250D01*
%TO.C,LED21*%
X160743750Y-90443750D02*
X160743750Y-88843750D01*
X160743750Y-90443750D02*
X152943750Y-90443750D01*
X152943750Y-86743750D02*
X160743750Y-86743750D01*
X160717250Y-89800250D02*
X160082250Y-90435250D01*
%TO.C,LED22*%
X179868750Y-97381250D02*
X179868750Y-95781250D01*
X179868750Y-97381250D02*
X172068750Y-97381250D01*
X172068750Y-93681250D02*
X179868750Y-93681250D01*
X179842250Y-96737750D02*
X179207250Y-97372750D01*
%TO.C,LED23*%
X198993750Y-97381250D02*
X198993750Y-95781250D01*
X198993750Y-97381250D02*
X191193750Y-97381250D01*
X191193750Y-93681250D02*
X198993750Y-93681250D01*
X198967250Y-96737750D02*
X198332250Y-97372750D01*
%TO.C,LED24*%
X90402147Y-115322501D02*
X89016506Y-116122501D01*
X90402147Y-115322501D02*
X94302147Y-122077499D01*
X91097853Y-123927499D02*
X87197853Y-117172501D01*
X89858110Y-115667201D02*
X90725536Y-115899627D01*
%TO.C,LED25*%
X106537500Y-109993750D02*
X106537500Y-111593750D01*
X106537500Y-109993750D02*
X114337500Y-109993750D01*
X114337500Y-113693750D02*
X106537500Y-113693750D01*
X106564000Y-110637250D02*
X107199000Y-110002250D01*
%TO.C,LED26*%
X125662500Y-107743750D02*
X125662500Y-109343750D01*
X125662500Y-107743750D02*
X133462500Y-107743750D01*
X133462500Y-111443750D02*
X125662500Y-111443750D01*
X125689000Y-108387250D02*
X126324000Y-107752250D01*
%TO.C,LED27*%
X144787500Y-106806250D02*
X144787500Y-108406250D01*
X144787500Y-106806250D02*
X152587500Y-106806250D01*
X152587500Y-110506250D02*
X144787500Y-110506250D01*
X144814000Y-107449750D02*
X145449000Y-106814750D01*
%TO.C,LED28*%
X163912500Y-112806250D02*
X163912500Y-114406250D01*
X163912500Y-112806250D02*
X171712500Y-112806250D01*
X171712500Y-116506250D02*
X163912500Y-116506250D01*
X163939000Y-113449750D02*
X164574000Y-112814750D01*
D11*
%TO.C,D0*%
X107831250Y-42831250D02*
X110231250Y-42831250D01*
X107831250Y-37106250D02*
X110231250Y-37106250D01*
X107831250Y-37406250D02*
X110231250Y-37406250D01*
X107831250Y-37031250D02*
X107831250Y-42831250D01*
X107831250Y-37581250D02*
X110231250Y-37581250D01*
X107831250Y-37756250D02*
X110231250Y-37756250D01*
X110231250Y-42831250D02*
X110231250Y-37031250D01*
X107831250Y-37231250D02*
X110231250Y-37231250D01*
X110231250Y-37006250D02*
X107831250Y-37006250D01*
%TO.C,D1*%
X129356250Y-33912500D02*
X126956250Y-33912500D01*
X126956250Y-34137500D02*
X129356250Y-34137500D01*
X129356250Y-39737500D02*
X129356250Y-33937500D01*
X126956250Y-34662500D02*
X129356250Y-34662500D01*
X126956250Y-34487500D02*
X129356250Y-34487500D01*
X126956250Y-33937500D02*
X126956250Y-39737500D01*
X126956250Y-34312500D02*
X129356250Y-34312500D01*
X126956250Y-34012500D02*
X129356250Y-34012500D01*
X126956250Y-39737500D02*
X129356250Y-39737500D01*
%TO.C,D2*%
X146081250Y-34862500D02*
X148481250Y-34862500D01*
X146081250Y-29137500D02*
X148481250Y-29137500D01*
X146081250Y-29437500D02*
X148481250Y-29437500D01*
X146081250Y-29062500D02*
X146081250Y-34862500D01*
X146081250Y-29612500D02*
X148481250Y-29612500D01*
X146081250Y-29787500D02*
X148481250Y-29787500D01*
X148481250Y-34862500D02*
X148481250Y-29062500D01*
X146081250Y-29262500D02*
X148481250Y-29262500D01*
X148481250Y-29037500D02*
X146081250Y-29037500D01*
%TO.C,D3*%
X167606250Y-32881250D02*
X165206250Y-32881250D01*
X165206250Y-33106250D02*
X167606250Y-33106250D01*
X167606250Y-38706250D02*
X167606250Y-32906250D01*
X165206250Y-33631250D02*
X167606250Y-33631250D01*
X165206250Y-33456250D02*
X167606250Y-33456250D01*
X165206250Y-32906250D02*
X165206250Y-38706250D01*
X165206250Y-33281250D02*
X167606250Y-33281250D01*
X165206250Y-32981250D02*
X167606250Y-32981250D01*
X165206250Y-38706250D02*
X167606250Y-38706250D01*
%TO.C,D4*%
X184331250Y-45643750D02*
X186731250Y-45643750D01*
X184331250Y-39918750D02*
X186731250Y-39918750D01*
X184331250Y-40218750D02*
X186731250Y-40218750D01*
X184331250Y-39843750D02*
X184331250Y-45643750D01*
X184331250Y-40393750D02*
X186731250Y-40393750D01*
X184331250Y-40568750D02*
X186731250Y-40568750D01*
X186731250Y-45643750D02*
X186731250Y-39843750D01*
X184331250Y-40043750D02*
X186731250Y-40043750D01*
X186731250Y-39818750D02*
X184331250Y-39818750D01*
%TO.C,D5*%
X203456250Y-45643750D02*
X205856250Y-45643750D01*
X203456250Y-39918750D02*
X205856250Y-39918750D01*
X203456250Y-40218750D02*
X205856250Y-40218750D01*
X203456250Y-39843750D02*
X203456250Y-45643750D01*
X203456250Y-40393750D02*
X205856250Y-40393750D01*
X203456250Y-40568750D02*
X205856250Y-40568750D01*
X205856250Y-45643750D02*
X205856250Y-39843750D01*
X203456250Y-40043750D02*
X205856250Y-40043750D01*
X205856250Y-39818750D02*
X203456250Y-39818750D01*
%TO.C,D6*%
X110231250Y-56131250D02*
X107831250Y-56131250D01*
X107831250Y-56356250D02*
X110231250Y-56356250D01*
X110231250Y-61956250D02*
X110231250Y-56156250D01*
X107831250Y-56881250D02*
X110231250Y-56881250D01*
X107831250Y-56706250D02*
X110231250Y-56706250D01*
X107831250Y-56156250D02*
X107831250Y-61956250D01*
X107831250Y-56531250D02*
X110231250Y-56531250D01*
X107831250Y-56231250D02*
X110231250Y-56231250D01*
X107831250Y-61956250D02*
X110231250Y-61956250D01*
%TO.C,D7*%
X126956250Y-58768750D02*
X129356250Y-58768750D01*
X126956250Y-53043750D02*
X129356250Y-53043750D01*
X126956250Y-53343750D02*
X129356250Y-53343750D01*
X126956250Y-52968750D02*
X126956250Y-58768750D01*
X126956250Y-53518750D02*
X129356250Y-53518750D01*
X126956250Y-53693750D02*
X129356250Y-53693750D01*
X129356250Y-58768750D02*
X129356250Y-52968750D01*
X126956250Y-53168750D02*
X129356250Y-53168750D01*
X129356250Y-52943750D02*
X126956250Y-52943750D01*
%TO.C,D8*%
X148481250Y-48256250D02*
X146081250Y-48256250D01*
X146081250Y-48481250D02*
X148481250Y-48481250D01*
X148481250Y-54081250D02*
X148481250Y-48281250D01*
X146081250Y-49006250D02*
X148481250Y-49006250D01*
X146081250Y-48831250D02*
X148481250Y-48831250D01*
X146081250Y-48281250D02*
X146081250Y-54081250D01*
X146081250Y-48656250D02*
X148481250Y-48656250D01*
X146081250Y-48356250D02*
X148481250Y-48356250D01*
X146081250Y-54081250D02*
X148481250Y-54081250D01*
%TO.C,D9*%
X165206250Y-57831250D02*
X167606250Y-57831250D01*
X165206250Y-52106250D02*
X167606250Y-52106250D01*
X165206250Y-52406250D02*
X167606250Y-52406250D01*
X165206250Y-52031250D02*
X165206250Y-57831250D01*
X165206250Y-52581250D02*
X167606250Y-52581250D01*
X165206250Y-52756250D02*
X167606250Y-52756250D01*
X167606250Y-57831250D02*
X167606250Y-52031250D01*
X165206250Y-52231250D02*
X167606250Y-52231250D01*
X167606250Y-52006250D02*
X165206250Y-52006250D01*
%TO.C,D10*%
X186731250Y-58943750D02*
X184331250Y-58943750D01*
X184331250Y-59168750D02*
X186731250Y-59168750D01*
X186731250Y-64768750D02*
X186731250Y-58968750D01*
X184331250Y-59693750D02*
X186731250Y-59693750D01*
X184331250Y-59518750D02*
X186731250Y-59518750D01*
X184331250Y-58968750D02*
X184331250Y-64768750D01*
X184331250Y-59343750D02*
X186731250Y-59343750D01*
X184331250Y-59043750D02*
X186731250Y-59043750D01*
X184331250Y-64768750D02*
X186731250Y-64768750D01*
%TO.C,D11*%
X205856250Y-58943750D02*
X203456250Y-58943750D01*
X203456250Y-59168750D02*
X205856250Y-59168750D01*
X205856250Y-64768750D02*
X205856250Y-58968750D01*
X203456250Y-59693750D02*
X205856250Y-59693750D01*
X203456250Y-59518750D02*
X205856250Y-59518750D01*
X203456250Y-58968750D02*
X203456250Y-64768750D01*
X203456250Y-59343750D02*
X205856250Y-59343750D01*
X203456250Y-59043750D02*
X205856250Y-59043750D01*
X203456250Y-64768750D02*
X205856250Y-64768750D01*
%TO.C,D12*%
X107831250Y-81081250D02*
X110231250Y-81081250D01*
X107831250Y-75356250D02*
X110231250Y-75356250D01*
X107831250Y-75656250D02*
X110231250Y-75656250D01*
X107831250Y-75281250D02*
X107831250Y-81081250D01*
X107831250Y-75831250D02*
X110231250Y-75831250D01*
X107831250Y-76006250D02*
X110231250Y-76006250D01*
X110231250Y-81081250D02*
X110231250Y-75281250D01*
X107831250Y-75481250D02*
X110231250Y-75481250D01*
X110231250Y-75256250D02*
X107831250Y-75256250D01*
%TO.C,D13*%
X129356250Y-72068750D02*
X126956250Y-72068750D01*
X126956250Y-72293750D02*
X129356250Y-72293750D01*
X129356250Y-77893750D02*
X129356250Y-72093750D01*
X126956250Y-72818750D02*
X129356250Y-72818750D01*
X126956250Y-72643750D02*
X129356250Y-72643750D01*
X126956250Y-72093750D02*
X126956250Y-77893750D01*
X126956250Y-72468750D02*
X129356250Y-72468750D01*
X126956250Y-72168750D02*
X129356250Y-72168750D01*
X126956250Y-77893750D02*
X129356250Y-77893750D01*
%TO.C,D14*%
X146081250Y-73225000D02*
X148481250Y-73225000D01*
X146081250Y-67500000D02*
X148481250Y-67500000D01*
X146081250Y-67800000D02*
X148481250Y-67800000D01*
X146081250Y-67425000D02*
X146081250Y-73225000D01*
X146081250Y-67975000D02*
X148481250Y-67975000D01*
X146081250Y-68150000D02*
X148481250Y-68150000D01*
X148481250Y-73225000D02*
X148481250Y-67425000D01*
X146081250Y-67625000D02*
X148481250Y-67625000D01*
X148481250Y-67400000D02*
X146081250Y-67400000D01*
%TO.C,D15*%
X167606250Y-71131250D02*
X165206250Y-71131250D01*
X165206250Y-71356250D02*
X167606250Y-71356250D01*
X167606250Y-76956250D02*
X167606250Y-71156250D01*
X165206250Y-71881250D02*
X167606250Y-71881250D01*
X165206250Y-71706250D02*
X167606250Y-71706250D01*
X165206250Y-71156250D02*
X165206250Y-76956250D01*
X165206250Y-71531250D02*
X167606250Y-71531250D01*
X165206250Y-71231250D02*
X167606250Y-71231250D01*
X165206250Y-76956250D02*
X167606250Y-76956250D01*
%TO.C,D16*%
X184331250Y-83893750D02*
X186731250Y-83893750D01*
X184331250Y-78168750D02*
X186731250Y-78168750D01*
X184331250Y-78468750D02*
X186731250Y-78468750D01*
X184331250Y-78093750D02*
X184331250Y-83893750D01*
X184331250Y-78643750D02*
X186731250Y-78643750D01*
X184331250Y-78818750D02*
X186731250Y-78818750D01*
X186731250Y-83893750D02*
X186731250Y-78093750D01*
X184331250Y-78293750D02*
X186731250Y-78293750D01*
X186731250Y-78068750D02*
X184331250Y-78068750D01*
%TO.C,D17*%
X205856250Y-78068750D02*
X203456250Y-78068750D01*
X203456250Y-78293750D02*
X205856250Y-78293750D01*
X205856250Y-83893750D02*
X205856250Y-78093750D01*
X203456250Y-78818750D02*
X205856250Y-78818750D01*
X203456250Y-78643750D02*
X205856250Y-78643750D01*
X203456250Y-78093750D02*
X203456250Y-83893750D01*
X203456250Y-78468750D02*
X205856250Y-78468750D01*
X203456250Y-78168750D02*
X205856250Y-78168750D01*
X203456250Y-83893750D02*
X205856250Y-83893750D01*
%TO.C,D18*%
X107831250Y-100206250D02*
X110231250Y-100206250D01*
X107831250Y-94481250D02*
X110231250Y-94481250D01*
X107831250Y-94781250D02*
X110231250Y-94781250D01*
X107831250Y-94406250D02*
X107831250Y-100206250D01*
X107831250Y-94956250D02*
X110231250Y-94956250D01*
X107831250Y-95131250D02*
X110231250Y-95131250D01*
X110231250Y-100206250D02*
X110231250Y-94406250D01*
X107831250Y-94606250D02*
X110231250Y-94606250D01*
X110231250Y-94381250D02*
X107831250Y-94381250D01*
%TO.C,D19*%
X126956250Y-97018750D02*
X129356250Y-97018750D01*
X126956250Y-91293750D02*
X129356250Y-91293750D01*
X126956250Y-91593750D02*
X129356250Y-91593750D01*
X126956250Y-91218750D02*
X126956250Y-97018750D01*
X126956250Y-91768750D02*
X129356250Y-91768750D01*
X126956250Y-91943750D02*
X129356250Y-91943750D01*
X129356250Y-97018750D02*
X129356250Y-91218750D01*
X126956250Y-91418750D02*
X129356250Y-91418750D01*
X129356250Y-91193750D02*
X126956250Y-91193750D01*
%TO.C,D20*%
X146081250Y-92331250D02*
X148481250Y-92331250D01*
X146081250Y-86606250D02*
X148481250Y-86606250D01*
X146081250Y-86906250D02*
X148481250Y-86906250D01*
X146081250Y-86531250D02*
X146081250Y-92331250D01*
X146081250Y-87081250D02*
X148481250Y-87081250D01*
X146081250Y-87256250D02*
X148481250Y-87256250D01*
X148481250Y-92331250D02*
X148481250Y-86531250D01*
X146081250Y-86731250D02*
X148481250Y-86731250D01*
X148481250Y-86506250D02*
X146081250Y-86506250D01*
%TO.C,D21*%
X167606250Y-90256250D02*
X165206250Y-90256250D01*
X165206250Y-90481250D02*
X167606250Y-90481250D01*
X167606250Y-96081250D02*
X167606250Y-90281250D01*
X165206250Y-91006250D02*
X167606250Y-91006250D01*
X165206250Y-90831250D02*
X167606250Y-90831250D01*
X165206250Y-90281250D02*
X165206250Y-96081250D01*
X165206250Y-90656250D02*
X167606250Y-90656250D01*
X165206250Y-90356250D02*
X167606250Y-90356250D01*
X165206250Y-96081250D02*
X167606250Y-96081250D01*
%TO.C,D22*%
X184331250Y-103018750D02*
X186731250Y-103018750D01*
X184331250Y-97293750D02*
X186731250Y-97293750D01*
X184331250Y-97593750D02*
X186731250Y-97593750D01*
X184331250Y-97218750D02*
X184331250Y-103018750D01*
X184331250Y-97768750D02*
X186731250Y-97768750D01*
X184331250Y-97943750D02*
X186731250Y-97943750D01*
X186731250Y-103018750D02*
X186731250Y-97218750D01*
X184331250Y-97418750D02*
X186731250Y-97418750D01*
X186731250Y-97193750D02*
X184331250Y-97193750D01*
%TO.C,D23*%
X205856250Y-97193750D02*
X203456250Y-97193750D01*
X203456250Y-97418750D02*
X205856250Y-97418750D01*
X205856250Y-103018750D02*
X205856250Y-97218750D01*
X203456250Y-97943750D02*
X205856250Y-97943750D01*
X203456250Y-97768750D02*
X205856250Y-97768750D01*
X203456250Y-97218750D02*
X203456250Y-103018750D01*
X203456250Y-97593750D02*
X205856250Y-97593750D01*
X203456250Y-97293750D02*
X205856250Y-97293750D01*
X203456250Y-103018750D02*
X205856250Y-103018750D01*
%TO.C,D24*%
X77225129Y-112017020D02*
X78425129Y-114095480D01*
X82183124Y-109154520D02*
X83383124Y-111232980D01*
X81923317Y-109304520D02*
X83123317Y-111382980D01*
X82248076Y-109117020D02*
X77225129Y-112017020D01*
X81771762Y-109392020D02*
X82971762Y-111470480D01*
X81620208Y-109479520D02*
X82820208Y-111557980D01*
X78425129Y-114095480D02*
X83448076Y-111195480D01*
X82074871Y-109217020D02*
X83274871Y-111295480D01*
X83469727Y-111182980D02*
X82269727Y-109104520D01*
%TO.C,D25*%
X121200000Y-113506250D02*
X118800000Y-113506250D01*
X118800000Y-113731250D02*
X121200000Y-113731250D01*
X121200000Y-119331250D02*
X121200000Y-113531250D01*
X118800000Y-114256250D02*
X121200000Y-114256250D01*
X118800000Y-114081250D02*
X121200000Y-114081250D01*
X118800000Y-113531250D02*
X118800000Y-119331250D01*
X118800000Y-113906250D02*
X121200000Y-113906250D01*
X118800000Y-113606250D02*
X121200000Y-113606250D01*
X118800000Y-119331250D02*
X121200000Y-119331250D01*
%TO.C,D26*%
X137925000Y-117081250D02*
X140325000Y-117081250D01*
X137925000Y-111356250D02*
X140325000Y-111356250D01*
X137925000Y-111656250D02*
X140325000Y-111656250D01*
X137925000Y-111281250D02*
X137925000Y-117081250D01*
X137925000Y-111831250D02*
X140325000Y-111831250D01*
X137925000Y-112006250D02*
X140325000Y-112006250D01*
X140325000Y-117081250D02*
X140325000Y-111281250D01*
X137925000Y-111481250D02*
X140325000Y-111481250D01*
X140325000Y-111256250D02*
X137925000Y-111256250D01*
%TO.C,D27*%
X159450000Y-110318750D02*
X157050000Y-110318750D01*
X157050000Y-110543750D02*
X159450000Y-110543750D01*
X159450000Y-116143750D02*
X159450000Y-110343750D01*
X157050000Y-111068750D02*
X159450000Y-111068750D01*
X157050000Y-110893750D02*
X159450000Y-110893750D01*
X157050000Y-110343750D02*
X157050000Y-116143750D01*
X157050000Y-110718750D02*
X159450000Y-110718750D01*
X157050000Y-110418750D02*
X159450000Y-110418750D01*
X157050000Y-116143750D02*
X159450000Y-116143750D01*
%TO.C,D28*%
X176175000Y-122143750D02*
X178575000Y-122143750D01*
X176175000Y-116418750D02*
X178575000Y-116418750D01*
X176175000Y-116718750D02*
X178575000Y-116718750D01*
X176175000Y-116343750D02*
X176175000Y-122143750D01*
X176175000Y-116893750D02*
X178575000Y-116893750D01*
X176175000Y-117068750D02*
X178575000Y-117068750D01*
X178575000Y-122143750D02*
X178575000Y-116343750D01*
X176175000Y-116543750D02*
X178575000Y-116543750D01*
X178575000Y-116318750D02*
X176175000Y-116318750D01*
%TO.C,D29*%
X197700000Y-116318750D02*
X195300000Y-116318750D01*
X195300000Y-116543750D02*
X197700000Y-116543750D01*
X197700000Y-122143750D02*
X197700000Y-116343750D01*
X195300000Y-117068750D02*
X197700000Y-117068750D01*
X195300000Y-116893750D02*
X197700000Y-116893750D01*
X195300000Y-116343750D02*
X195300000Y-122143750D01*
X195300000Y-116718750D02*
X197700000Y-116718750D01*
X195300000Y-116418750D02*
X197700000Y-116418750D01*
X195300000Y-122143750D02*
X197700000Y-122143750D01*
%TO.C,D30*%
X72825000Y-87068750D02*
X70425000Y-87068750D01*
X70425000Y-87293750D02*
X72825000Y-87293750D01*
X72825000Y-92893750D02*
X72825000Y-87093750D01*
X70425000Y-87818750D02*
X72825000Y-87818750D01*
X70425000Y-87643750D02*
X72825000Y-87643750D01*
X70425000Y-87093750D02*
X70425000Y-92893750D01*
X70425000Y-87468750D02*
X72825000Y-87468750D01*
X70425000Y-87168750D02*
X72825000Y-87168750D01*
X70425000Y-92893750D02*
X72825000Y-92893750D01*
D10*
%TO.C,J0*%
X62091750Y-75156250D02*
X62091750Y-70156250D01*
X64091750Y-75156250D02*
X62091750Y-75156250D01*
X64091750Y-70156250D02*
X62091750Y-70156250D01*
X73516750Y-75756250D02*
X73516750Y-77156250D01*
X74616750Y-69556250D02*
X64091750Y-69556250D01*
X75066750Y-75756250D02*
X76191750Y-75756250D01*
X71116750Y-75756250D02*
X73516750Y-75756250D01*
X68116750Y-75756250D02*
X69466750Y-75756250D01*
X64091750Y-75756250D02*
X66466750Y-75756250D01*
X75066750Y-75756250D02*
X75066750Y-77156250D01*
X76191750Y-69556250D02*
X76191750Y-75756250D01*
X64091750Y-75756250D02*
X64091750Y-75156250D01*
X64091750Y-70156250D02*
X64091750Y-69556250D01*
%TO.C,JP5*%
X70718750Y-56256250D02*
X70718750Y-59056250D01*
X70718750Y-59056250D02*
X72718750Y-59056250D01*
X72718750Y-59056250D02*
X72718750Y-56256250D01*
X72718750Y-56256250D02*
X70718750Y-56256250D01*
%TO.C,JP6*%
X75531250Y-56256250D02*
X73531250Y-56256250D01*
X75531250Y-59056250D02*
X75531250Y-56256250D01*
X73531250Y-59056250D02*
X75531250Y-59056250D01*
X73531250Y-56256250D02*
X73531250Y-59056250D01*
%TO.C,JP7*%
X76343750Y-56256250D02*
X76343750Y-59056250D01*
X76343750Y-59056250D02*
X78343750Y-59056250D01*
X78343750Y-59056250D02*
X78343750Y-56256250D01*
X78343750Y-56256250D02*
X76343750Y-56256250D01*
%TO.C,JP8*%
X81156250Y-56256250D02*
X79156250Y-56256250D01*
X81156250Y-59056250D02*
X81156250Y-56256250D01*
X79156250Y-59056250D02*
X81156250Y-59056250D01*
X79156250Y-56256250D02*
X79156250Y-59056250D01*
D12*
%TO.C,U0*%
X66378685Y-25018005D02*
X84158685Y-25018005D01*
X84158685Y-25018005D02*
X84158685Y-58038005D01*
X66378685Y-58038005D02*
X66378685Y-25018005D01*
X81618685Y-27558005D02*
X84158685Y-27558005D01*
D13*
X84158685Y-27558005D02*
X84158685Y-58038005D01*
D12*
X84158685Y-58038005D02*
X81618685Y-58038005D01*
X81618685Y-58038005D02*
X81618685Y-27558005D01*
X66378685Y-27558005D02*
X68918685Y-27558005D01*
X68918685Y-27558005D02*
X68918685Y-58038005D01*
X68918685Y-58038005D02*
X66378685Y-58038005D01*
D13*
X66378685Y-58038005D02*
X66378685Y-27558005D01*
%TO.C,J0*%
X72355654Y-78077630D02*
X71784226Y-78077630D01*
X72069940Y-79077630D02*
X72069940Y-78077630D01*
X70879464Y-79077630D02*
X71212797Y-78601440D01*
X71450892Y-79077630D02*
X71450892Y-78077630D01*
X71069940Y-78077630D01*
X70974702Y-78125250D01*
X70927083Y-78172869D01*
X70879464Y-78268107D01*
X70879464Y-78410964D01*
X70927083Y-78506202D01*
X70974702Y-78553821D01*
X71069940Y-78601440D01*
X71450892Y-78601440D01*
X69879464Y-79077630D02*
X70212797Y-78601440D01*
X70450892Y-79077630D02*
X70450892Y-78077630D01*
X70069940Y-78077630D01*
X69974702Y-78125250D01*
X69927083Y-78172869D01*
X69879464Y-78268107D01*
X69879464Y-78410964D01*
X69927083Y-78506202D01*
X69974702Y-78553821D01*
X70069940Y-78601440D01*
X70450892Y-78601440D01*
X69498511Y-79030011D02*
X69355654Y-79077630D01*
X69117559Y-79077630D01*
X69022321Y-79030011D01*
X68974702Y-78982392D01*
X68927083Y-78887154D01*
X68927083Y-78791916D01*
X68974702Y-78696678D01*
X69022321Y-78649059D01*
X69117559Y-78601440D01*
X69308035Y-78553821D01*
X69403273Y-78506202D01*
X69450892Y-78458583D01*
X69498511Y-78363345D01*
X69498511Y-78268107D01*
X69450892Y-78172869D01*
X69403273Y-78125250D01*
X69308035Y-78077630D01*
X69069940Y-78077630D01*
X68927083Y-78125250D01*
%TO.C,JP5*%
X69371130Y-56822916D02*
X70085416Y-56822916D01*
X70228273Y-56775297D01*
X70323511Y-56680059D01*
X70371130Y-56537202D01*
X70371130Y-56441964D01*
X70371130Y-57299107D02*
X69371130Y-57299107D01*
X69371130Y-57680059D01*
X69418750Y-57775297D01*
X69466369Y-57822916D01*
X69561607Y-57870535D01*
X69704464Y-57870535D01*
X69799702Y-57822916D01*
X69847321Y-57775297D01*
X69894940Y-57680059D01*
X69894940Y-57299107D01*
X69371130Y-58775297D02*
X69371130Y-58299107D01*
X69847321Y-58251488D01*
X69799702Y-58299107D01*
X69752083Y-58394345D01*
X69752083Y-58632440D01*
X69799702Y-58727678D01*
X69847321Y-58775297D01*
X69942559Y-58822916D01*
X70180654Y-58822916D01*
X70275892Y-58775297D01*
X70323511Y-58727678D01*
X70371130Y-58632440D01*
X70371130Y-58394345D01*
X70323511Y-58299107D01*
X70275892Y-58251488D01*
%TO.C,JP6*%
X72183630Y-56822916D02*
X72897916Y-56822916D01*
X73040773Y-56775297D01*
X73136011Y-56680059D01*
X73183630Y-56537202D01*
X73183630Y-56441964D01*
X73183630Y-57299107D02*
X72183630Y-57299107D01*
X72183630Y-57680059D01*
X72231250Y-57775297D01*
X72278869Y-57822916D01*
X72374107Y-57870535D01*
X72516964Y-57870535D01*
X72612202Y-57822916D01*
X72659821Y-57775297D01*
X72707440Y-57680059D01*
X72707440Y-57299107D01*
X72183630Y-58727678D02*
X72183630Y-58537202D01*
X72231250Y-58441964D01*
X72278869Y-58394345D01*
X72421726Y-58299107D01*
X72612202Y-58251488D01*
X72993154Y-58251488D01*
X73088392Y-58299107D01*
X73136011Y-58346726D01*
X73183630Y-58441964D01*
X73183630Y-58632440D01*
X73136011Y-58727678D01*
X73088392Y-58775297D01*
X72993154Y-58822916D01*
X72755059Y-58822916D01*
X72659821Y-58775297D01*
X72612202Y-58727678D01*
X72564583Y-58632440D01*
X72564583Y-58441964D01*
X72612202Y-58346726D01*
X72659821Y-58299107D01*
X72755059Y-58251488D01*
%TO.C,JP7*%
X74996130Y-56822916D02*
X75710416Y-56822916D01*
X75853273Y-56775297D01*
X75948511Y-56680059D01*
X75996130Y-56537202D01*
X75996130Y-56441964D01*
X75996130Y-57299107D02*
X74996130Y-57299107D01*
X74996130Y-57680059D01*
X75043750Y-57775297D01*
X75091369Y-57822916D01*
X75186607Y-57870535D01*
X75329464Y-57870535D01*
X75424702Y-57822916D01*
X75472321Y-57775297D01*
X75519940Y-57680059D01*
X75519940Y-57299107D01*
X74996130Y-58203869D02*
X74996130Y-58870535D01*
X75996130Y-58441964D01*
%TO.C,JP8*%
X77808630Y-56822916D02*
X78522916Y-56822916D01*
X78665773Y-56775297D01*
X78761011Y-56680059D01*
X78808630Y-56537202D01*
X78808630Y-56441964D01*
X78808630Y-57299107D02*
X77808630Y-57299107D01*
X77808630Y-57680059D01*
X77856250Y-57775297D01*
X77903869Y-57822916D01*
X77999107Y-57870535D01*
X78141964Y-57870535D01*
X78237202Y-57822916D01*
X78284821Y-57775297D01*
X78332440Y-57680059D01*
X78332440Y-57299107D01*
X78237202Y-58441964D02*
X78189583Y-58346726D01*
X78141964Y-58299107D01*
X78046726Y-58251488D01*
X77999107Y-58251488D01*
X77903869Y-58299107D01*
X77856250Y-58346726D01*
X77808630Y-58441964D01*
X77808630Y-58632440D01*
X77856250Y-58727678D01*
X77903869Y-58775297D01*
X77999107Y-58822916D01*
X78046726Y-58822916D01*
X78141964Y-58775297D01*
X78189583Y-58727678D01*
X78237202Y-58632440D01*
X78237202Y-58441964D01*
X78284821Y-58346726D01*
X78332440Y-58299107D01*
X78427678Y-58251488D01*
X78618154Y-58251488D01*
X78713392Y-58299107D01*
X78761011Y-58346726D01*
X78808630Y-58441964D01*
X78808630Y-58632440D01*
X78761011Y-58727678D01*
X78713392Y-58775297D01*
X78618154Y-58822916D01*
X78427678Y-58822916D01*
X78332440Y-58775297D01*
X78284821Y-58727678D01*
X78237202Y-58632440D01*
%TD*%
M02*
