M48
; DRILL file {KiCad (5.1.8)-1} date 02/13/21 18:14:18
; FORMAT={-:-/ absolute / inch / decimal}
; #@! TF.CreationDate,2021-02-13T18:14:18-08:00
; #@! TF.GenerationSoftware,Kicad,Pcbnew,(5.1.8)-1
; #@! TF.FileFunction,NonPlated,1,2,NPTH
FMAT,2
INCH
T1C0.0472
T2C0.0591
T3C0.0669
T4C0.1339
%
G90
G05
T1
X4.4635Y-1.2852
X4.8746Y-1.2852
X5.2165Y-1.1006
X5.6275Y-1.1006
X7.1542Y-4.5332
X7.5653Y-4.5332
X5.2165Y-2.6065
X5.6275Y-2.6065
X5.9694Y-2.0012
X6.3805Y-2.0012
X3.7106Y-1.4107
X4.1216Y-1.4107
X5.9694Y-3.5071
X6.3805Y-3.5071
X7.4753Y-3.7803
X7.8864Y-3.7803
X4.8954Y-4.3339
X5.3064Y-4.3339
X5.9694Y-1.2483
X6.3805Y-1.2483
X4.4635Y-3.544
X4.8746Y-3.544
X4.4635Y-2.7911
X4.8746Y-2.7911
X7.4753Y-1.5214
X7.8864Y-1.5214
X5.6483Y-4.297
X6.0594Y-4.297
X7.4753Y-3.0273
X7.8864Y-3.0273
X6.7224Y-3.0273
X7.1334Y-3.0273
X3.4546Y-4.5413
X3.6601Y-4.8972
X7.4753Y-2.2744
X7.8864Y-2.2744
X5.2165Y-1.8536
X5.6275Y-1.8536
X3.7106Y-2.9166
X4.1216Y-2.9166
X4.4635Y-2.0381
X4.8746Y-2.0381
X5.9694Y-2.7542
X6.3805Y-2.7542
X6.7224Y-3.7803
X7.1334Y-3.7803
X5.2165Y-3.3595
X5.6275Y-3.3595
X6.4013Y-4.5332
X6.8123Y-4.5332
X6.7224Y-2.2744
X7.1334Y-2.2744
X4.1424Y-4.4225
X4.5534Y-4.4225
X6.7224Y-1.5214
X7.1334Y-1.5214
X3.7106Y-2.1636
X4.1216Y-2.1636
X3.7106Y-3.6695
X4.1216Y-3.6695
T2
X2.5863Y-2.8605
X2.5863Y-2.8605
X2.8619Y-2.8605
X2.8619Y-2.8605
T3
X4.4525Y-1.4505
X4.8856Y-1.4505
X5.2055Y-1.266
X5.6385Y-1.266
X7.1432Y-4.6986
X7.5763Y-4.6986
X5.2055Y-2.7719
X5.6385Y-2.7719
X5.9584Y-2.1666
X6.3915Y-2.1666
X3.6996Y-1.576
X4.1326Y-1.576
X5.9584Y-3.6725
X6.3915Y-3.6725
X7.4643Y-3.9456
X7.8974Y-3.9456
X4.8844Y-4.4993
X5.3174Y-4.4993
X5.9584Y-1.4136
X6.3915Y-1.4136
X4.4525Y-3.7094
X4.8856Y-3.7094
X4.4525Y-2.9564
X4.8856Y-2.9564
X7.4643Y-1.6868
X7.8974Y-1.6868
X5.6373Y-4.4624
X6.0704Y-4.4624
X7.4643Y-3.1927
X7.8974Y-3.1927
X6.7114Y-3.1927
X7.1444Y-3.1927
X3.3059Y-4.6144
X3.5224Y-4.9894
X7.4643Y-2.4397
X7.8974Y-2.4397
X5.2055Y-2.0189
X5.6385Y-2.0189
X3.6996Y-3.0819
X4.1326Y-3.0819
X4.4525Y-2.2035
X4.8856Y-2.2035
X5.9584Y-2.9195
X6.3915Y-2.9195
X6.7114Y-3.9456
X7.1444Y-3.9456
X5.2055Y-3.5249
X5.6385Y-3.5249
X6.3903Y-4.6986
X6.8233Y-4.6986
X6.7114Y-2.4397
X7.1444Y-2.4397
X4.1314Y-4.5878
X4.5645Y-4.5878
X6.7114Y-1.6868
X7.1444Y-1.6868
X3.6996Y-2.329
X4.1326Y-2.329
X3.6996Y-3.8349
X4.1326Y-3.8349
T4
X5.422Y-2.7719
X6.175Y-2.1666
X3.9161Y-1.576
X6.175Y-3.6725
X7.6809Y-3.9456
X5.1009Y-4.4993
X6.175Y-1.4136
X4.669Y-3.7094
X4.669Y-2.9564
X7.6809Y-1.6868
X5.8538Y-4.4624
X7.6809Y-3.1927
X6.9279Y-3.1927
X3.4141Y-4.8019
X7.6809Y-2.4397
X5.422Y-2.0189
X3.9161Y-3.0819
X4.669Y-2.2035
X6.175Y-2.9195
X6.9279Y-3.9456
X5.422Y-3.5249
X6.6068Y-4.6986
X6.9279Y-2.4397
X4.3479Y-4.5878
X6.9279Y-1.6868
X3.9161Y-2.329
X3.9161Y-3.8349
X4.669Y-1.4505
X5.422Y-1.266
X7.3597Y-4.6986
T0
M30
