%TF.GenerationSoftware,KiCad,Pcbnew,(5.1.8)-1*%
%TF.CreationDate,2021-02-13T18:12:48-08:00*%
%TF.ProjectId,Dualies,4475616c-6965-4732-9e6b-696361645f70,rev?*%
%TF.SameCoordinates,Original*%
%TF.FileFunction,Profile,NP*%
%FSLAX46Y46*%
G04 Gerber Fmt 4.6, Leading zero omitted, Abs format (unit mm)*
G04 Created by KiCad (PCBNEW (5.1.8)-1) date 2021-02-13 18:12:48*
%MOMM*%
%LPD*%
G01*
G04 APERTURE LIST*
%TA.AperFunction,Profile*%
%ADD10C,0.050000*%
%TD*%
%TA.AperFunction,Profile*%
%ADD11C,0.120000*%
%TD*%
G04 APERTURE END LIST*
D10*
X207187500Y-32812500D02*
X207187500Y-109875000D01*
X60937500Y-24000000D02*
X60843751Y-97031249D01*
X61875000Y-23062500D02*
X90562500Y-23062500D01*
X60937500Y-24000000D02*
G75*
G02*
X61875000Y-23062500I937500J0D01*
G01*
X90562500Y-23062500D02*
X102187500Y-21468750D01*
X85406250Y-140906250D02*
X102289528Y-130903075D01*
X102289528Y-130903076D02*
G75*
G02*
X157593749Y-130687501I28022972J-95034424D01*
G01*
X69656250Y-113812500D02*
X62604095Y-100826158D01*
X62604095Y-100826158D02*
G75*
G02*
X60843751Y-97031249I25239655J14013658D01*
G01*
X85406250Y-140906250D02*
X69656250Y-113812500D01*
X198750000Y-130687500D02*
X157593749Y-130687501D01*
X207191441Y-111750994D02*
G75*
G02*
X198749999Y-130687499I-58691441J14813494D01*
G01*
X207187500Y-111562500D02*
X207187500Y-111750000D01*
X207187500Y-110812500D02*
X207187500Y-111562500D01*
X207187500Y-110531250D02*
X207187500Y-110812500D01*
X207187500Y-110156250D02*
X207187500Y-110531250D01*
X207187500Y-109875000D02*
X207187500Y-110156250D01*
X153946843Y-21467027D02*
X102187500Y-21468750D01*
X153946843Y-21467027D02*
G75*
G02*
X207187499Y-32812501I-23634343J-241501723D01*
G01*
D11*
%TO.C,LED0*%
X101268750Y-33793750D02*
X97668750Y-33793750D01*
X101268750Y-36893750D02*
X101268750Y-33793750D01*
X101268750Y-36893750D02*
X97668750Y-36893750D01*
X97668750Y-36893750D02*
X97668750Y-33793750D01*
%TO.C,LED29*%
X188737500Y-113106250D02*
X185137500Y-113106250D01*
X188737500Y-116206250D02*
X188737500Y-113106250D01*
X188737500Y-116206250D02*
X185137500Y-116206250D01*
X185137500Y-116206250D02*
X185137500Y-113106250D01*
%TO.C,LED1*%
X120393750Y-30606250D02*
X116793750Y-30606250D01*
X120393750Y-33706250D02*
X120393750Y-30606250D01*
X120393750Y-33706250D02*
X116793750Y-33706250D01*
X116793750Y-33706250D02*
X116793750Y-30606250D01*
%TO.C,LED2*%
X139518750Y-25918750D02*
X135918750Y-25918750D01*
X139518750Y-29018750D02*
X139518750Y-25918750D01*
X139518750Y-29018750D02*
X135918750Y-29018750D01*
X135918750Y-29018750D02*
X135918750Y-25918750D01*
%TO.C,LED3*%
X158643750Y-29668750D02*
X155043750Y-29668750D01*
X158643750Y-32768750D02*
X158643750Y-29668750D01*
X158643750Y-32768750D02*
X155043750Y-32768750D01*
X155043750Y-32768750D02*
X155043750Y-29668750D01*
%TO.C,LED4*%
X177768750Y-36606250D02*
X174168750Y-36606250D01*
X177768750Y-39706250D02*
X177768750Y-36606250D01*
X177768750Y-39706250D02*
X174168750Y-39706250D01*
X174168750Y-39706250D02*
X174168750Y-36606250D01*
%TO.C,LED5*%
X196893750Y-36606250D02*
X193293750Y-36606250D01*
X196893750Y-39706250D02*
X196893750Y-36606250D01*
X196893750Y-39706250D02*
X193293750Y-39706250D01*
X193293750Y-39706250D02*
X193293750Y-36606250D01*
%TO.C,LED6*%
X97668750Y-56018750D02*
X101268750Y-56018750D01*
X97668750Y-52918750D02*
X97668750Y-56018750D01*
X97668750Y-52918750D02*
X101268750Y-52918750D01*
X101268750Y-52918750D02*
X101268750Y-56018750D01*
%TO.C,LED7*%
X116793750Y-52831250D02*
X120393750Y-52831250D01*
X116793750Y-49731250D02*
X116793750Y-52831250D01*
X116793750Y-49731250D02*
X120393750Y-49731250D01*
X120393750Y-49731250D02*
X120393750Y-52831250D01*
%TO.C,LED8*%
X135918750Y-48143750D02*
X139518750Y-48143750D01*
X135918750Y-45043750D02*
X135918750Y-48143750D01*
X135918750Y-45043750D02*
X139518750Y-45043750D01*
X139518750Y-45043750D02*
X139518750Y-48143750D01*
%TO.C,LED9*%
X155043750Y-51893750D02*
X158643750Y-51893750D01*
X155043750Y-48793750D02*
X155043750Y-51893750D01*
X155043750Y-48793750D02*
X158643750Y-48793750D01*
X158643750Y-48793750D02*
X158643750Y-51893750D01*
%TO.C,LED10*%
X174168750Y-58831250D02*
X177768750Y-58831250D01*
X174168750Y-55731250D02*
X174168750Y-58831250D01*
X174168750Y-55731250D02*
X177768750Y-55731250D01*
X177768750Y-55731250D02*
X177768750Y-58831250D01*
%TO.C,LED11*%
X193293750Y-58831250D02*
X196893750Y-58831250D01*
X193293750Y-55731250D02*
X193293750Y-58831250D01*
X193293750Y-55731250D02*
X196893750Y-55731250D01*
X196893750Y-55731250D02*
X196893750Y-58831250D01*
%TO.C,LED12*%
X101268750Y-72043750D02*
X97668750Y-72043750D01*
X101268750Y-75143750D02*
X101268750Y-72043750D01*
X101268750Y-75143750D02*
X97668750Y-75143750D01*
X97668750Y-75143750D02*
X97668750Y-72043750D01*
%TO.C,LED13*%
X120393750Y-68856250D02*
X116793750Y-68856250D01*
X120393750Y-71956250D02*
X120393750Y-68856250D01*
X120393750Y-71956250D02*
X116793750Y-71956250D01*
X116793750Y-71956250D02*
X116793750Y-68856250D01*
%TO.C,LED14*%
X139518750Y-64168750D02*
X135918750Y-64168750D01*
X139518750Y-67268750D02*
X139518750Y-64168750D01*
X139518750Y-67268750D02*
X135918750Y-67268750D01*
X135918750Y-67268750D02*
X135918750Y-64168750D01*
%TO.C,LED15*%
X158643750Y-67918750D02*
X155043750Y-67918750D01*
X158643750Y-71018750D02*
X158643750Y-67918750D01*
X158643750Y-71018750D02*
X155043750Y-71018750D01*
X155043750Y-71018750D02*
X155043750Y-67918750D01*
%TO.C,LED16*%
X177768750Y-74856250D02*
X174168750Y-74856250D01*
X177768750Y-77956250D02*
X177768750Y-74856250D01*
X177768750Y-77956250D02*
X174168750Y-77956250D01*
X174168750Y-77956250D02*
X174168750Y-74856250D01*
%TO.C,LED17*%
X196893750Y-74856250D02*
X193293750Y-74856250D01*
X196893750Y-77956250D02*
X196893750Y-74856250D01*
X196893750Y-77956250D02*
X193293750Y-77956250D01*
X193293750Y-77956250D02*
X193293750Y-74856250D01*
%TO.C,LED18*%
X97668750Y-94268750D02*
X101268750Y-94268750D01*
X97668750Y-91168750D02*
X97668750Y-94268750D01*
X97668750Y-91168750D02*
X101268750Y-91168750D01*
X101268750Y-91168750D02*
X101268750Y-94268750D01*
%TO.C,LED19*%
X116793750Y-91081250D02*
X120393750Y-91081250D01*
X116793750Y-87981250D02*
X116793750Y-91081250D01*
X116793750Y-87981250D02*
X120393750Y-87981250D01*
X120393750Y-87981250D02*
X120393750Y-91081250D01*
%TO.C,LED20*%
X135918750Y-86393750D02*
X139518750Y-86393750D01*
X135918750Y-83293750D02*
X135918750Y-86393750D01*
X135918750Y-83293750D02*
X139518750Y-83293750D01*
X139518750Y-83293750D02*
X139518750Y-86393750D01*
%TO.C,LED21*%
X155043750Y-90143750D02*
X158643750Y-90143750D01*
X155043750Y-87043750D02*
X155043750Y-90143750D01*
X155043750Y-87043750D02*
X158643750Y-87043750D01*
X158643750Y-87043750D02*
X158643750Y-90143750D01*
%TO.C,LED22*%
X174168750Y-97081250D02*
X177768750Y-97081250D01*
X174168750Y-93981250D02*
X174168750Y-97081250D01*
X174168750Y-93981250D02*
X177768750Y-93981250D01*
X177768750Y-93981250D02*
X177768750Y-97081250D01*
%TO.C,LED23*%
X193293750Y-97081250D02*
X196893750Y-97081250D01*
X193293750Y-93981250D02*
X193293750Y-97081250D01*
X193293750Y-93981250D02*
X196893750Y-93981250D01*
X196893750Y-93981250D02*
X196893750Y-97081250D01*
%TO.C,LED24*%
X92992339Y-120408846D02*
X91192339Y-117291154D01*
X90307661Y-121958846D02*
X92992339Y-120408846D01*
X90307661Y-121958846D02*
X88507661Y-118841154D01*
X88507661Y-118841154D02*
X91192339Y-117291154D01*
%TO.C,LED25*%
X112237500Y-110293750D02*
X108637500Y-110293750D01*
X112237500Y-113393750D02*
X112237500Y-110293750D01*
X112237500Y-113393750D02*
X108637500Y-113393750D01*
X108637500Y-113393750D02*
X108637500Y-110293750D01*
%TO.C,LED26*%
X131362500Y-108043750D02*
X127762500Y-108043750D01*
X131362500Y-111143750D02*
X131362500Y-108043750D01*
X131362500Y-111143750D02*
X127762500Y-111143750D01*
X127762500Y-111143750D02*
X127762500Y-108043750D01*
%TO.C,LED27*%
X150487500Y-107106250D02*
X146887500Y-107106250D01*
X150487500Y-110206250D02*
X150487500Y-107106250D01*
X150487500Y-110206250D02*
X146887500Y-110206250D01*
X146887500Y-110206250D02*
X146887500Y-107106250D01*
%TO.C,LED28*%
X169612500Y-113106250D02*
X166012500Y-113106250D01*
X169612500Y-116206250D02*
X169612500Y-113106250D01*
X169612500Y-116206250D02*
X166012500Y-116206250D01*
X166012500Y-116206250D02*
X166012500Y-113106250D01*
%TD*%
M02*
